<?xml version="1.0" encoding="utf-8"?>
<!-- Generator: Adobe Illustrator 17.0.0, SVG Export Plug-In . SVG Version: 6.00 Build 0)  -->
<!DOCTYPE svg PUBLIC "-//W3C//DTD SVG 1.1//EN" "http://www.w3.org/Graphics/SVG/1.1/DTD/svg11.dtd">
<svg version="1.1" id="Layer_1" xmlns="http://www.w3.org/2000/svg" xmlns:xlink="http://www.w3.org/1999/xlink" x="0px" y="0px"
	 width="752.615px" height="732.825px" viewBox="0 0 752.615 732.825" enable-background="new 0 0 752.615 732.825"
	 xml:space="preserve">
<g>
	<path d="M753.37,49.286c-3.729,2.819-7.496,5.591-11.182,8.466c-17.179,13.399-34.335,26.829-51.502,40.244
		c-8.847,6.913-17.715,13.799-26.538,20.742c-1.907,1.5-3.703,3.149-5.48,4.804c-1.952,1.817-4.295,3.105-6.358,4.715
		c-9.773,7.629-19.454,15.386-28.934,23.375c-5.954,5.017-11.481,10.54-17.225,15.807c-15.567,14.274-31.059,28.631-46.772,42.742
		c-5.538,4.974-11.616,9.349-17.474,13.964c-12.374,9.748-24.839,19.383-37.113,29.256c-4.528,3.643-9.502,6.542-14.324,9.7
		c-6.927,4.537-13.93,8.959-20.895,13.44c-5.415,3.484-10.801,7.016-16.246,10.453c-1.276,0.805-2.156,1.689-2.484,3.229
		c-0.615,2.888-1.985,5.418-3.574,7.934c-1.346,2.131-2.221,4.677-2.785,7.158c-0.908,3.992-1.57,8.062-2.007,12.134
		c-0.736,6.857-2.919,13.345-4.685,19.943c-0.837,3.127-1.695,6.247-2.34,9.532c35.114-20.571,69.661-41.923,104.805-62.269
		c35.14-20.345,70.281-40.688,105.882-61.299c0,1.986,0.033,3.448-0.005,4.907c-0.487,18.599-0.916,37.2-1.501,55.795
		c-0.439,13.987-1.089,27.967-1.608,41.952c-0.029,0.779,0.325,1.566,0.427,2.358c0.082,0.641,0.131,1.304,0.062,1.943
		c-0.765,7.134-1.509,14.27-2.356,21.395c-0.527,4.436-0.787,8.906-2.169,13.229c-0.755,2.361-1.021,4.883-1.427,7.346
		c-0.101,0.616,0.112,1.284,0.194,2.055c-0.637,0.551-1.301,1.187-2.026,1.744c-5.972,4.59-11.879,9.27-17.967,13.7
		c-3.013,2.193-6.374,3.906-9.565,5.858c-1.892,1.157-3.762,2.351-5.636,3.538c-3.728,2.362-7.376,4.863-11.193,7.071
		c-8.14,4.708-15.802,10.157-23.785,15.106c-6.15,3.812-12.277,7.68-18.227,11.794c-7.844,5.423-15.499,11.118-23.246,16.681
		c-8.894,6.386-17.823,12.724-26.693,19.144c-5.414,3.919-10.731,7.973-16.115,11.934c-7.738,5.693-15.499,11.355-23.247,17.035
		c-6.273,4.598-12.512,9.245-18.821,13.793c-7.603,5.481-15.325,10.798-22.887,16.335c-14.958,10.953-31.26,19.736-47.073,29.307
		c-9.169,5.55-18.367,11.062-27.697,16.334c-11.882,6.714-23.845,13.29-35.894,19.699c-10.705,5.693-21.494,11.24-32.391,16.554
		c-13.813,6.736-27.773,13.171-41.669,19.737c-8.25,3.898-16.404,8.016-24.769,11.649c-11.415,4.958-22.755,10.114-34.562,14.139
		c-7.337,2.502-14.573,5.3-21.852,7.973c-4.369,1.604-8.73,3.227-13.098,4.831c-10.59,3.886-21.202,7.715-31.766,11.672
		c-4.379,1.64-8.648,3.573-12.992,5.308c-0.895,0.357-1.91,0.402-2.859,0.634c-0.723,0.177-1.459,0.354-2.14,0.646
		c-25.697,11.017-51.394,22.034-77.072,33.095c-2.979,1.283-5.847,2.823-8.772,4.23c-0.362,0.174-0.762,0.268-1.046,0.366
		c-0.208-0.098-0.294-0.122-0.357-0.174c-0.057-0.047-0.125-0.124-0.125-0.188c-0.041-39.975-0.077-79.951-0.108-119.926
		c-0.001-0.659,0.06-1.319,0.096-2.046c4.215-1.698,8.343-3.426,12.519-5.032c12.309-4.732,24.628-9.439,36.96-14.109
		c5.916-2.24,11.903-4.293,17.798-6.583c4.58-1.779,9.063-3.81,13.599-5.702c7.074-2.951,14.205-5.768,21.225-8.841
		c12.262-5.37,24.491-10.818,36.671-16.373c9.167-4.181,18.383-8.294,27.312-12.947c13.137-6.845,26.039-14.143,39.039-21.251
		c1.47-0.803,2.9-1.686,4.402-2.42c1.516-0.741,1.96-1.841,1.716-3.47c-0.905-6.044-1.736-12.099-2.597-18.149
		c-1.329-9.341-2.566-18.696-4.024-28.016c-0.915-5.853-2.133-11.66-3.269-17.477c-1.12-5.732-2.192-11.478-3.503-17.167
		c-1.232-5.347-2.782-10.621-4.126-15.943c-0.693-2.746-1.285-5.52-1.823-8.301c-0.109-0.562,0.038-1.368,0.39-1.795
		c5.84-7.079,11.739-14.109,17.611-21.161c7.818-9.389,16.712-17.761,25.142-26.571c8.748-9.142,17.533-18.255,26.54-27.139
		c3.86-3.807,8.263-7.077,12.523-10.46c23.628-18.758,47.29-37.474,70.927-56.22c0.845-0.67,1.613-1.463,2.317-2.285
		c10.844-12.67,21.657-25.367,32.529-38.014c0.896-1.042,2.162-1.766,3.252-2.642c0.579-0.465,1.201-0.891,1.712-1.423
		c1.334-1.39,2.68-2.778,3.903-4.264c1.156-1.406,2.58-2.036,4.475-2.075c0.583,1.457,1.216,2.876,1.723,4.338
		c1.133,3.268,2.237,6.548,3.288,9.843c1.058,3.316,1.98,6.676,3.074,9.979c0.695,2.098,1.605,4.123,2.396,6.19
		c0.355,0.927,0.79,1.852,0.954,2.818c0.639,3.755,2.12,7.219,3.474,10.74c0.818,2.126,1.287,4.383,1.981,6.559
		c1.424,4.467,2.917,8.912,4.341,13.379c1.656,5.196,3.225,10.42,4.914,15.605c1.698,5.215,3.705,10.338,5.185,15.611
		c1.174,4.183,2.459,8.294,4.26,12.239c0.375,0.822,0.857,1.663,1.494,2.287c1.616,1.583,3.633,1.852,5.084-0.734
		c1.701-3.033,2.587-6.35,2.869-9.723c0.554-6.621,2.657-12.758,5.311-18.734c1.014-2.283,2.46-4.391,3.846-6.488
		c2.951-4.466,6.042-8.84,8.963-13.325c0.887-1.362,1.452-2.946,2.077-4.464c1.438-3.491,2.56-7.051,1.69-10.896
		c-0.27-1.192-0.641-2.364-1.017-3.529c-1.842-5.712-4.564-11.062-6.834-16.599c-2.116-5.162-4.167-10.35-6.263-15.519
		c-2.087-5.145-4.086-10.329-6.32-15.409c-2.929-6.661-5.885-13.307-8.593-20.062c-1.229-3.066-2.664-6.049-3.931-9.101
		c-1.046-2.52-1.937-5.104-2.977-7.626c-1.228-2.977-2.514-5.931-3.831-8.869c-0.664-1.481-1.453-2.907-2.27-4.525
		c-1.784,0.799-3.295,1.453-4.786,2.147c-3.303,1.539-6.59,3.11-9.895,4.645c-2.962,1.377-6.024,2.567-8.883,4.129
		c-2.601,1.422-5.115,3.102-6.307,6.125c-1.033-1.535-1.979-5.591-1.759-7.109c0.134-0.927,0.626-1.413,1.471-1.813
		c4.225-1.996,8.393-4.112,12.623-6.098c3.693-1.734,7.453-3.326,11.162-5.026c4.114-1.886,8.251-3.729,12.292-5.762
		c5.646-2.84,11.675-4.957,16.769-8.853c1.051-0.804,2.151-1.761,3.375-2.076c2.12-0.544,3.258-2.331,4.977-3.362
		c2.653-1.592,5.086-3.55,7.715-5.426c0.519,0.208,1.085,0.436,1.651,0.663c0.09-0.097,0.179-0.194,0.269-0.291
		c-0.204-0.265-0.408-0.53-0.738-0.961c1.905-1.333,3.78-2.717,5.727-3.989c2.524-1.648,4.812-3.679,7.661-4.81
		c2.822-3.249,6.968-4.66,10.24-7.331c1.715-1.4,3.475-3.159,5.991-3.453c0.406-0.047,0.621-1.072,1.082-1.455
		c0.809-0.672,1.745-1.191,2.62-1.784c2.938-1.991,5.892-3.96,8.806-5.986c7.904-5.496,15.863-10.916,23.668-16.549
		c18.951-13.677,37.826-27.46,56.735-41.196C595.45,25.238,608.137,16.05,620.8,6.829c2.822-2.055,5.568-4.214,8.349-6.326
		c5.197,0,10.394,0,15.59,0c-0.297,0.498-0.732,0.961-0.871,1.5c-1.275,4.972-1.07,9.831,1.245,14.504
		c1.426,2.878,3.077,5.676,4.159,8.678c0.576,1.599,1.394,2.946,2.345,4.226c2.21,2.975,5.362,4.415,8.971,4.668
		c4.192,0.294,8.401,0.442,12.604,0.48c5.205,0.047,10.413-0.012,15.616-0.16c3.826-0.109,7.622-0.26,11.427,0.451
		c3.109,0.581,5.622,1.866,7.023,4.802c1.417,2.97,2.405,6.209,4.207,8.913c2.05,3.076,1.68,5.622-0.397,8.222
		c-1.398,1.75-3.012,3.326-5.23,4.038c-1.989,0.639-2.686,0.3-3.565-1.543c-1.712-3.589-3.426-7.177-5.16-10.756
		c-0.717-1.481-1.832-2.864-2.158-4.419c-0.587-2.796-2.885-4.544-3.518-7.097c-1.982-0.049-2.544,1.537-3.63,2.333
		c-2.539,1.861-4.914,3.946-7.46,5.795c-4.355,3.162-8.297,6.872-12.944,9.654c-0.963,0.577-1.725,1.559-2.424,2.474
		c-0.268,0.352-0.295,1.122-0.102,1.555c1.435,3.224,2.911,6.432,4.454,9.606c2.021,4.156,4.098,8.285,6.192,12.405
		c0.579,1.14,1.141,2.356,1.99,3.281c2.457,2.677,5.308,4.638,9.217,4.423c3.957-0.218,7.693-1.276,11.315-2.787
		c6.923-2.887,12.531-7.841,18.574-12.081c2.456-1.723,4.278-4.326,6.497-6.414c2.997-2.821,5.928-5.707,8.438-8.967
		c1.965-2.552,3.859-5.178,5.54-7.921c1.332-2.173,2.421-4.522,3.378-6.89c0.792-1.958,1.568-4.025,1.764-6.1
		c0.468-4.959,0.238-9.761-2.653-14.278c-2.12-3.313-3.44-7.145-5.044-10.778c-1.141-2.585-2.971-4.798-5.253-6.096
		c-3.807-2.166-8.298-2.148-12.575-2.228c-4.894-0.091-9.797,0.293-14.695,0.498c-2.466,0.103-4.928,0.302-7.394,0.394
		c-4.159,0.154-8.348,0.475-12.409-0.74c-2.112-0.632-4.23-1.41-5.287-3.644c3.856,0,7.711,0,11.567,0
		c1.134,1.28,1.358,1.28,2.515,0c19.614,0,39.228,0,58.841,0c1.173,0.168,2.347,0.335,3.52,0.503
		C753.37,17.099,753.37,33.193,753.37,49.286z M392.345,397.267c-1.17,0.574-2.033,0.901-2.793,1.388
		c-4.507,2.887-8.995,5.804-13.481,8.725c-3.767,2.453-7.447,5.051-11.311,7.337c-2.163,1.28-2.291,2.983-2.055,5.082
		c0.712,6.344,1.799,12.644,2.212,19.023c0.102,1.578,0.318,3.149,0.491,4.723c0.374,3.391,0.775,6.779,1.126,10.172
		c0.271,2.623,0.478,5.253,0.722,7.879c0.192,2.063,0.624,4.134,0.538,6.184c-0.098,2.351,0.266,4.628,0.489,6.931
		c0.284,2.934,0.472,5.858,0.541,8.816c0.071,3.077,0.792,6.142,0.779,9.299c-0.012,2.837,0.717,5.671,1.012,8.517
		c0.305,2.947,0.467,5.908,0.717,8.86c0.25,2.954,0.788,5.911,0.727,8.857c-0.06,2.912,0.441,5.741,0.565,8.609
		c0.073,1.696,0.066,3.719-0.769,5.055c-1.273,2.035-2.993,3.892-5.574,4.673c-2.734,0.828-4.256-0.045-4.3-2.912
		c-0.068-4.445-0.263-8.879-0.857-13.286c-0.202-1.497,0.411-3.082-0.495-4.498c0.888-2.649-0.355-5.179-0.461-7.776
		c-0.176-4.283-0.564-8.558-0.828-12.838c-0.173-2.804-0.232-5.616-0.438-8.417c-0.182-2.474-0.54-4.935-0.742-7.408
		c-0.348-4.272-0.601-8.552-0.958-12.824c-0.454-5.44-0.956-10.875-1.468-16.31c-0.312-3.307-0.686-6.608-1.028-9.912
		c-0.368-3.553-0.713-7.109-1.102-10.659c-0.258-2.353-0.577-4.699-0.916-7.437c-9.952,6.575-19.309,13.398-28.596,19.825
		c0.093,1.404,0.142,2.384,0.225,3.361c0.372,4.392,0.786,8.781,1.125,13.175c0.492,6.38,0.901,12.766,1.405,19.145
		c0.36,4.56,0.904,9.107,1.213,13.67c0.383,5.659,0.564,11.332,0.912,16.995c0.401,6.524,0.938,13.04,1.322,19.565
		c0.246,4.186,0.291,8.377,0.681,12.562c0.369,3.963,0.468,7.961,0.47,11.944c0.001,2.824,0.88,5.261,2.183,7.705
		c1.27,2.382,3.325,3.333,5.726,3.737c3.114,0.524,6.265,0.018,9.226-0.742c3.299-0.846,6.709-1.514,9.755-3.29
		c2.065-1.204,4.269-2.276,6.544-2.98c2.003-0.62,3.702-1.751,5.208-2.947c2.985-2.37,6.886-3.447,9.255-6.638
		c2.762-1.201,4.326-3.788,6.457-5.706c2.136-1.923,3.928-4.24,5.779-6.462c1.124-1.35,2.08-2.841,3.099-4.277
		c0.575-0.811,1.059-1.696,1.698-2.452c1.205-1.427,3.17-4.785,3.689-6.599c0.312-1.091,0.342-2.315,0.864-3.282
		c1.577-2.917,1.372-6.093,1.616-9.211c0.098-1.247,0.296-2.513,0.176-3.744c-0.27-2.782-0.8-5.538-1.055-8.321
		c-0.239-2.603-0.217-5.229-0.388-7.84c-0.178-2.724-0.428-5.444-0.682-8.162c-0.233-2.495-0.569-4.98-0.76-7.478
		c-0.451-5.905-0.816-11.816-1.267-17.721c-0.221-2.893-0.611-5.774-0.826-8.667c-0.292-3.932-0.388-7.882-0.755-11.806
		c-0.479-5.123-1.142-10.228-1.725-15.341c-0.654-5.74-1.291-11.483-1.97-17.22C393.037,401.781,392.687,399.656,392.345,397.267z
		 M496.336,118.425c-0.148,4.232,1.423,7.853,2.855,11.487c0.71,1.803,1.793,3.455,2.548,5.243c1.549,3.67,2.962,7.397,4.492,11.075
		c0.538,1.294,1.326,2.484,1.872,3.775c2.167,5.122,4.275,10.269,6.423,15.4c0.735,1.756,1.507,3.498,2.293,5.233
		c2.019,4.46,4.094,8.896,6.076,13.372c2.461,5.556,4.777,11.178,7.294,16.708c2.242,4.926,6.457,6.964,11.616,6.999
		c3.191,0.022,6.35-0.812,9.239-2.155c3.342-1.553,6.664-3.245,9.725-5.281c3.487-2.319,6.762-4.984,9.973-7.684
		c3.243-2.727,6.352-5.621,9.405-8.56c1.596-1.536,3.147-3.195,4.363-5.034c1.851-2.802,4.35-5.142,5.702-8.306
		c0.808-1.89,2.118-3.571,2.871-5.477c0.968-2.448,1.616-5.024,2.381-7.552c1.026-3.395,0.781-6.782,0.126-10.226
		c-0.716-3.767-2.83-6.917-4.262-10.361c-2.522-6.065-5.34-12.006-8.033-18c-1.582-3.521-3.183-7.035-4.739-10.568
		c-1.893-4.301-3.754-8.615-5.617-12.929c-1.609-3.725-3.204-7.455-4.797-11.187c-0.477-1.118-0.864-2.279-1.399-3.368
		c-1.144-2.329-2.391-4.608-3.534-6.937c-1.979-4.034-5.683-5.789-9.672-6.532c-3.434-0.639-6.987,0.412-10.363,1.266
		c-2.126,0.538-4.04,1.895-6.071,2.835c-0.938,0.434-1.972,0.673-2.884,1.149c-0.706,0.368-1.259,1.018-1.936,1.456
		c-2.405,1.554-4.964,2.902-7.225,4.639c-3.919,3.01-7.657,6.257-11.479,9.394c-0.694,0.57-1.515,1.01-2.126,1.653
		c-0.893,0.941-1.572,2.088-2.478,3.014c-3.959,4.049-7.345,8.511-9.775,13.637C497.405,110.391,496.373,114.391,496.336,118.425z
		 M457.833,418.13c1.709-3.458,3.511-6.142,5.616-8.637c0.296-0.35,0.633-0.681,0.855-1.075c0.699-1.24,1.149-2.685,2.064-3.727
		c2.097-2.386,2.876-5.359,3.885-8.191c1.926-5.404,1.617-11.003,0.952-16.602c-0.31-2.608-0.451-5.235-0.682-7.852
		c-0.224-2.545-0.391-5.11-1.48-7.475c-1.364-2.963-3.569-4.828-6.96-4.853c-4.124-0.03-8.125,0.941-11.85,2.52
		c-7.439,3.154-14.198,7.563-20.956,11.974c-6.924,4.519-14.041,8.741-21.086,13.073c-2.767,1.702-5.567,3.349-8.313,4.998
		c-0.081,0.816-0.255,1.489-0.194,2.141c0.267,2.839,0.586,5.673,0.916,8.506c0.432,3.71,0.922,7.413,1.334,11.125
		c0.504,4.536,0.971,9.077,1.419,13.619c0.219,2.221,0.329,4.452,0.541,6.674c0.371,3.875,0.823,7.743,1.166,11.621
		c0.349,3.941,0.545,7.895,0.922,11.833c0.391,4.084,1.282,8.154,1.296,12.233c0.018,5.493,1.222,10.862,1.16,16.357
		c-0.04,3.585,0.53,7.177,0.836,10.766c0.238,2.788,0.225,5.632,0.806,8.348c0.642,2.997,0.384,6.041,1.016,9.047
		c0.601,2.861,0.312,5.901,0.619,8.84c0.075,0.722,0.826,1.547,1.49,1.986c0.685,0.454,1.307-0.111,1.85-0.745
		c0.454-0.529,1.2-0.807,1.813-1.201c1.584-1.018,3.202-1.988,4.735-3.079c0.992-0.706,1.879-1.566,2.77-2.402
		c0.546-0.512,1.401,0.039,1.969-1.002c0.623-1.141,2.015-1.914,3.175-2.697c2.298-1.551,4.681-2.976,7-4.497
		c1.242-0.815,2.424-1.722,3.819-2.721c0.152-0.908,0.455-2.096,0.53-3.298c0.181-2.899-0.774-5.707-0.531-8.669
		c0.25-3.042-0.628-6.086-0.69-9.189c-0.094-4.68-0.757-9.348-1.149-14.024c-0.198-2.36-0.318-4.727-0.504-7.089
		c-0.109-1.388-0.555-2.811-0.363-4.148c0.397-2.77-0.396-5.388-0.62-8.073c-0.263-3.152-0.574-6.3-0.81-9.454
		c-0.025-0.333,0.285-0.716,0.497-1.038c1.171-1.776,3.163-2.325,4.952-3.015c2.348-0.905,4.22,0.472,4.437,3.052
		c0.208,2.481,0.31,4.971,0.423,7.459c0.122,2.701,1.113,5.366,0.346,8.109c-0.061,0.218,0.068,0.485,0.089,0.731
		c0.26,3.007,0.532,6.014,0.767,9.023c0.176,2.251,0.08,4.549,0.5,6.75c0.78,4.088,0.967,8.253,2.051,12.321
		c0.706,2.649,1.369,5.205,2.718,7.611c0.542,0.966,1.12,1.573,2.134,1.793c0.473-0.249,0.951-0.427,1.343-0.72
		c2.738-2.051,5.447-4.141,8.189-6.188c2.086-1.557,4.217-3.054,6.307-4.605c1.59-1.18,3.117-2.446,4.726-3.598
		c1.518-1.087,3.099-2.087,4.665-3.105c1.749-1.137,1.871-1.831,1.051-3.771c-1.112-2.632-2.083-5.323-3.092-7.998
		c-0.171-0.454-0.411-0.996-0.307-1.421c0.614-2.533-0.886-4.77-0.928-7.23c-0.032-1.891-1.167-3.871-0.848-5.637
		c0.571-3.159-0.91-6.197-0.087-9.28c-1.401-3.634-0.96-7.51-0.985-11.216c-0.025-3.681-0.713-6.967-2.06-10.305
		c-0.556-1.378-1.371-2.18-2.571-2.763c-2.864-1.39-5.803-1.789-8.893-0.728C460.573,417.68,459.438,417.796,457.833,418.13z
		 M562.434,53.652c0.637,1.643,1.158,3.088,1.753,4.501c0.954,2.264,1.988,4.494,2.932,6.762c0.952,2.287,1.785,4.624,2.763,6.899
		c1.166,2.713,2.446,5.376,3.647,8.074c1.32,2.965,2.558,5.968,3.917,8.915c1.682,3.647,3.535,7.217,5.162,10.888
		c2.013,4.541,3.799,9.183,5.812,13.724c1.915,4.318,4.273,8.459,5.93,12.867c1.938,5.157,4.39,10.051,6.879,14.925
		c1.155,2.262,3.005,4.326,5.626,4.976c4.398,1.091,8.851,0.66,12.971-1.082c5.107-2.159,10.134-4.56,14.748-7.703
		c2.73-1.86,5.611-3.544,8.129-5.658c2.151-1.806,4.132-3.814,6.436-5.458c1.001-0.714,1.929-1.562,2.77-2.461
		c2.433-2.6,4.851-5.217,7.188-7.904c2.66-3.058,5.023-6.337,7.031-9.872c1.466-2.581,2.752-5.234,3.524-8.106
		c0.961-3.578,1.308-7.239,0.018-10.752c-1.338-3.647-3.032-7.167-4.646-10.708c-1.754-3.848-3.606-7.652-5.397-11.484
		c-2.388-5.111-4.768-10.225-7.134-15.346c-2.763-5.98-5.502-11.97-8.263-17.951c-1.565-3.39-3.146-6.772-4.731-10.152
		c-1.013-2.159-2.057-4.304-3.068-6.464c-1.905-4.071-3.797-8.148-5.694-12.222c-0.505,0.146-0.777,0.154-0.959,0.287
		c-3.274,2.391-6.548,4.782-9.798,7.206c-1.837,1.369-3.623,2.806-5.445,4.195c-0.912,0.695-1.877,1.323-2.775,2.035
		c-1.431,1.134-2.66,2.737-4.277,3.377c-2.575,1.02-3.889,3.238-5.914,4.812c0.253,0.984,0.268,1.996,0.737,2.711
		c3.213,4.895,4.513,10.646,7.18,15.787c1.855,3.575,3.393,7.313,5.062,10.984c0.448,0.985,0.844,1.994,1.288,2.981
		c1.391,3.087,2.775,6.178,4.196,9.251c1.516,3.277,3.105,6.521,4.602,9.807c2.537,5.568,5.008,11.166,7.541,16.735
		c2.493,5.482,5.021,10.948,7.552,16.412c0.632,1.363,0.303,2.598-0.418,3.772c-1.155,1.879-2.781,3.311-4.669,4.389
		c-2.307,1.316-4.257,0.869-5.223-2.061c-0.286-0.866-0.599-1.73-0.992-2.552c-0.888-1.861-1.899-3.665-2.744-5.544
		c-3.233-7.19-6.397-14.412-9.635-21.6c-1.787-3.967-3.714-7.872-5.5-11.84c-2.072-4.603-4.065-9.241-6.079-13.87
		c-1.321-3.037-2.598-6.093-3.937-9.122c-0.866-1.959-1.834-3.874-2.712-5.828c-1.652-3.678-3.264-7.374-4.918-11.051
		c-0.164-0.366-0.558-0.624-0.748-0.984c-0.531-1.009-1.34-0.588-1.949-0.283c-0.746,0.373-1.373,0.989-2.041,1.513
		c-2.458,1.928-4.857,3.936-7.379,5.775c-4.025,2.936-8.156,5.724-12.19,8.648C566.531,50.295,564.582,51.951,562.434,53.652z
		 M394.8,224.659c-1.65,0-3.616-0.151-5.549,0.034c-3.202,0.307-6.026,1.751-8.624,3.55c-2.848,1.973-5.706,3.967-8.328,6.222
		c-2.113,1.818-3.875,4.043-5.803,6.077c-1.531,1.615-3.084,3.209-4.616,4.822c-1.481,1.56-2.906,3.175-4.432,4.689
		c-2.158,2.139-4.384,4.211-6.587,6.305c-3.085,2.933-6.117,5.926-9.294,8.757c-1.284,1.144-1.377,2.355-1.014,3.799
		c0.48,1.91,0.949,3.825,1.487,5.719c0.718,2.531,1.508,5.043,2.249,7.568c1.044,3.562,2.081,7.126,3.102,10.694
		c0.834,2.916,1.616,5.847,2.465,8.759c0.967,3.317,2.021,6.61,2.967,9.933c1.104,3.875,2.098,7.781,3.206,11.654
		c0.819,2.862,1.821,5.673,2.603,8.545c1.417,5.202,2.721,10.435,4.092,15.649c1.46,5.554,2.963,11.097,4.41,16.654
		c0.882,3.39,1.698,6.796,2.534,10.198c0.669,2.725,1.286,5.464,1.997,8.178c0.449,1.711,1.03,3.388,1.631,5.338
		c1.801-1.104,3.366-1.986,4.848-2.99c2.886-1.955,5.716-3.993,8.59-5.968c1.288-0.885,2.679-1.627,3.93-2.558
		c4.933-3.672,9.868-7.343,14.728-11.111c4.922-3.815,9.806-7.657,13.701-12.631c4.224-5.395,6.984-11.432,8.489-18.053
		c1.704-7.496,0.849-14.897-1.342-22.158c-1.906-6.316-3.946-12.594-6.047-18.848c-1.268-3.775-2.644-7.524-4.197-11.189
		c-1.463-3.455-4.254-3.773-7.021-3.137c-2.314,0.532-4.47,1.747-6.702,2.646c-0.561,0.226-1.142,0.402-2.153,0.753
		c0.602-1.265,1.031-2.056,1.364-2.885c1.107-2.752,2.397-5.456,3.21-8.295c1.023-3.571,1.677-7.195,1.905-10.992
		c0.268-4.467-0.942-8.503-1.932-12.646c-0.549-2.298-1.68-4.453-2.295-6.74c-0.602-2.239-1.421-4.389-2.141-6.581
		C399.112,231.02,397.452,227.95,394.8,224.659z M586.77,357.498c1.479,2.493,2.653,5.225,2.595,8.339
		c-0.008,0.409,0.174,0.818,0.213,1.232c0.154,1.599,0.547,3.235,0.336,4.787c-0.139,1.022-0.11,1.823,0.213,2.778
		c0.809,2.395,0.255,4.805-0.478,7.086c-0.3,0.933-1.964,1.596-1.989,2.413c-0.051,1.697-1.563,1.427-2.268,2.072
		c-0.943,0.863-2.456,1.236-3.787,1.489c-0.727,0.138-1.682-0.255-2.346-0.694c-0.419-0.276-0.582-1.06-0.698-1.649
		c-0.179-0.908-0.219-1.844-0.319-2.768c-0.264-2.437-0.62-4.869-0.762-7.313c-0.103-1.778,0.604-3.775,0.011-5.312
		c-0.964-2.498-0.978-4.993-0.964-7.498c0.01-1.915-0.602-3.351-1.848-4.809c-2.271,2.052-5.102,2.801-7.397,4.633
		c-2.933,2.34-6.361,4.068-9.613,5.997c-0.732,0.435-1.994,0.38-2.35,0.958c-0.652,1.057-1.829,1.177-2.574,1.988
		c-0.744,0.809-1.589,1.679-2.571,2.078c-1.363,0.554-2.071,1.297-2.027,2.771c0.066,2.219-0.161,4.482,0.203,6.647
		c0.554,3.293,0.413,6.631,0.978,9.924c0.299,1.74,0.125,3.56,0.348,5.375c0.401,3.273,0.349,6.622,1.201,9.829
		c0.466,1.756,1.045,3.641,2.13,5.034c1.469,1.886,4.173,1.865,6.186,3.007c1.342-0.753,3.119,0.928,4.294-0.766
		c5.248-0.559,9.811-3.165,14.636-4.97c1.08-0.404,1.836-1.6,2.869-2.216c1.994-1.19,4.067-2.254,6.134-3.317
		c0.962-0.495,2.047-0.769,2.965-1.327c0.737-0.447,1.216-1.47,1.971-1.695c0.986-0.294,1.507-1.142,2.261-1.622
		c1.426-0.907,3.206-1.221,4.38-2.538c0.853-0.957,1.936-1.764,2.574-2.84c0.603-1.016,2.534-0.813,2.226-2.553
		c-0.009-0.053,0.272-0.155,0.415-0.238c2.55-1.483,4.261-3.849,6.22-5.949c0.819-0.878,1.678-1.782,2.233-2.826
		c0.49-0.921,2.165-1.205,1.539-2.766c-0.052-0.131,0.378-0.597,0.658-0.692c0.954-0.324,1.237-1.197,1.699-1.917
		c1.332-2.077,1.922-4.59,3.751-6.384c0.111-0.109-0.015-0.461-0.034-0.7c-0.063-0.812-0.126-1.625-0.187-2.406
		c0.569-0.49,1.072-0.922,1.607-1.382c0.134-1.825,0.268-3.687,0.414-5.548c0.017-0.212,0.032-0.516,0.166-0.613
		c0.883-0.639,0.502-1.565,0.25-2.165c-0.733-1.747-0.285-3.544-0.506-5.3c-0.139-1.1-0.35-2.191-0.556-3.281
		c-0.06-0.319-0.306-0.617-0.314-0.929c-0.084-3.313-0.204-6.594-0.635-9.912c-0.309-2.38-1.216-4.474-2.042-6.492
		c-0.927-2.265-3.178-3.91-5.355-5.255c-2.265-1.4-5.171-1.209-7.376-2.829c-0.097-0.071-0.336,0.084-0.485,0.045
		c-2.788-0.719-5.608-1.342-8.349-2.214c-2.568-0.817-5.193-1.361-7.795-2.019c-1.03-0.261-2.126-0.31-3.119-0.662
		c-2.293-0.814-4.637-1.572-6.782-2.693c-2.158-1.128-4.112-2.678-4.736-5.266c-0.68-2.817-1.437-5.626-1.898-8.481
		c-0.522-3.239-0.916-6.568,1.263-9.459c1.023-1.357,2.068-2.759,3.357-3.835c1.331-1.111,3.674-0.267,4.265,1.426
		c0.472,1.352,0.812,2.778,0.984,4.199c0.24,1.983-0.079,4.095,0.478,5.962c0.676,2.265,0.42,4.556,0.864,6.797
		c0.357,1.805,0.635,3.625,0.999,5.73c0.934-0.432,1.547-0.64,2.081-0.976c1.919-1.208,3.797-2.48,5.716-3.688
		c1.531-0.963,3.138-1.807,4.641-2.81c2.152-1.436,4.224-2.99,6.36-4.451c1.082-0.74,2.256-1.346,3.336-2.089
		c1.462-1.006,2.958-1.991,4.28-3.165c0.942-0.838,1.379-2.062,1.162-3.391c-0.895-5.47-1.819-10.936-1.84-16.504
		c-0.001-0.4-0.23-0.796-0.317-1.201c-0.261-1.215-0.542-2.427-0.747-3.652c-0.696-4.15-2.323-7.628-6.713-8.955
		c-1.4-0.423-2.933-0.831-4.352-0.694c-6.03,0.584-11.415,3.252-16.602,6.061c-5.502,2.979-10.828,6.355-15.623,10.452
		c-2.054,1.755-4.17,3.456-6.078,5.361c-2.684,2.68-5.319,5.419-7.495,8.558c-1.269,1.832-3.044,3.432-3.854,5.435
		c-1.26,3.119-3.852,5.688-3.923,9.292c-2.346,4.675-2.122,9.69-1.724,14.657c0.39,4.86,1.015,9.71,1.748,14.531
		c0.587,3.86,2.148,7.295,6.071,8.866c3.004,1.203,6.147,2.056,9.191,3.165c2.275,0.829,4.733,0.622,7.022,1.684
		c2.301,1.067,4.938,1.402,7.418,2.093c0.993,0.277,1.998,1.001,2.928,0.897c1.339-0.15,2.381,0.222,3.469,0.803
		C582.668,355.352,584.695,356.407,586.77,357.498z M338.237,410.176c0.686-0.118,1.066-0.082,1.321-0.243
		c9.607-6.076,19.202-12.171,28.902-18.329c-0.225-0.949-0.273-1.698-0.575-2.327c-0.932-1.943-1.989-3.826-2.944-5.759
		c-2.341-4.742-4.603-9.523-6.991-14.24c-1.525-3.011-3.28-5.905-4.826-8.907c-2.868-5.569-5.641-11.187-8.488-16.768
		c-1.539-3.018-3.161-5.993-4.725-8.998c-1.548-2.975-3.067-5.965-4.603-8.947c-0.746-1.447-1.494-2.893-2.255-4.332
		c-2.133-4.035-4.284-8.061-6.405-12.102c-0.76-1.448-1.44-2.938-2.183-4.396c-1.725-3.381-3.465-6.754-5.205-10.128
		c-0.034-0.066-0.161-0.084-0.196-0.15c-0.807-1.49-1.573-3.004-2.423-4.469c-0.562-0.968-1.245-1.867-1.981-2.955
		c-1.169,0.763-2.138,1.241-2.918,1.933c-2.199,1.95-4.723,3.451-6.972,5.361c-4.464,3.792-9.327,7.11-13.908,10.771
		c-2.991,2.389-5.712,5.113-8.68,7.533c-1.382,1.127-1.78,2.424-1.728,4.066c0.127,3.95,0.153,7.904,0.33,11.852
		c0.18,4.017,0.541,8.026,0.723,12.043c0.086,1.894-0.156,3.803-0.082,5.698c0.197,5.077,0.482,10.151,0.734,15.226
		c0.194,3.921,0.339,7.846,0.598,11.763c0.297,4.497,0.787,8.983,1.03,13.482c0.347,6.433,0.55,12.874,0.803,19.311
		c0.094,2.389,0.098,4.783,0.243,7.168c0.206,3.372,0.545,6.735,0.753,10.107c0.276,4.468,0.427,8.944,0.731,13.41
		c0.275,4.038,0.683,8.068,1.033,12.102c9.12-7.389,18.189-14.737,27.439-22.23c-0.829-11.706-1.671-23.587-2.517-35.53
		c4.447-2.93,8.71-5.738,13.089-8.623c0.854,1.548,1.64,2.728,2.187,4.011c1.392,3.267,2.624,6.603,4.021,9.868
		c1.206,2.82,2.517,5.598,3.848,8.362C336.273,406.588,337.249,408.307,338.237,410.176z M200.757,519.108
		c-1.493,0.575-2.672,0.94-3.768,1.475c-1.147,0.561-2.199,1.314-3.32,1.933c-4.207,2.323-8.419,4.636-12.642,6.93
		c-2.764,1.501-5.54,2.98-8.326,4.44c-2.415,1.266-4.87,2.455-7.272,3.744c-2.52,1.352-5.299,2.54-4.991,6.196
		c0.013,0.149-0.132,0.305-0.174,0.465c-1.381,5.289-2.826,10.563-4.118,15.873c-1.193,4.905-2.163,9.864-3.346,14.771
		c-0.849,3.523-1.936,6.989-2.826,10.503c-1.47,5.803-2.797,11.642-4.318,17.431c-1.091,4.151-2.396,8.247-3.615,12.365
		c-1.153,3.895-2.318,7.786-3.475,11.679c-0.826,2.779-1.612,5.572-2.482,8.337c-1.495,4.755-3.191,9.452-4.519,14.251
		c-1.084,3.917-2.594,7.688-3.664,11.593c-0.505,1.842-1.62,3.653-0.97,5.882c1.266-0.31,2.497-0.472,3.619-0.913
		c2.918-1.146,5.744-2.537,8.688-3.609c5.924-2.157,11.904-4.16,17.856-6.241c2.4-0.839,3.968-2.332,4.011-5.079
		c0.013-0.82,0.205-1.656,0.43-2.452c1.715-6.092,3.481-12.17,5.179-18.267c0.503-1.807,0.807-3.668,1.259-5.49
		c0.52-2.092,1.094-4.01,3.562-4.874c3.274-1.146,6.398-2.717,9.618-4.029c0.808-0.329,1.735-0.366,2.844-0.584
		c0.39,3.344,0.774,6.431,1.103,9.525c0.2,1.879,0.273,3.772,0.479,5.65c0.321,2.927,0.817,5.839,1.022,8.773
		c0.126,1.813,0.608,3.443,1.318,5.172c1.501-0.646,2.829-1.277,4.202-1.786c0.922-0.342,1.952-0.405,2.858-0.776
		c4.449-1.818,8.883-3.673,13.303-5.561c3.536-1.511,7.044-3.088,10.564-4.637c1.084-0.477,1.798-1.185,1.62-2.494
		c-0.384-2.822-0.691-5.655-1.143-8.466c-0.54-3.36-1.25-6.692-1.793-10.051c-0.762-4.713-1.375-9.451-2.174-14.157
		c-0.525-3.092-1.337-6.134-1.895-9.221c-1.596-8.819-3.121-17.651-4.689-26.476c-0.377-2.124-0.828-4.235-1.21-6.358
		c-0.458-2.539-0.826-5.095-1.327-7.625c-0.967-4.889-2.002-9.764-3.006-14.646c-0.348-1.691-0.708-3.38-1.023-5.078
		C201.738,524.707,201.303,522.177,200.757,519.108z M536.364,354.88c-6.206,3.461-11.77,7.169-17.177,11.134
		c-1.985,1.456-4.074,2.78-6.18,4.057c-1.077,0.653-1.827,0.261-2.04-0.996c-0.256-1.514-0.387-3.05-0.538-4.58
		c-0.203-2.057-0.375-4.118-0.56-6.177c-0.252-2.793-0.506-5.585-0.754-8.379c-0.08-0.903-0.166-1.807-0.21-2.712
		c-0.077-1.568-0.089-3.14-0.193-4.706c-0.126-1.885-0.319-3.766-0.47-5.499c0.604-0.505,0.941-0.925,1.379-1.131
		c3.749-1.758,6.484-4.974,10.165-6.9c2.801-1.465,5.159-3.757,7.788-5.576c2.377-1.645,4.825-3.194,7.299-4.69
		c1.082-0.654,1.522-1.487,1.372-2.683c-0.154-1.226-0.393-2.443-0.496-3.672c-0.239-2.872-0.019-5.773-0.858-8.605
		c-0.505-1.702-0.481-1.861-1.95-0.94c-3.621,2.27-7.234,4.558-10.756,6.976c-4.837,3.322-9.576,6.786-14.378,10.16
		c-3.793,2.665-7.648,5.241-11.419,7.937c-5.735,4.1-11.399,8.3-17.144,12.386c-1.319,0.938-1.889,1.921-1.581,3.576
		c0.332,1.786,0.384,3.625,0.541,5.442c0.294,3.394,0.574,6.789,0.863,10.184c0.446,5.249,0.936,10.495,1.326,15.748
		c0.285,3.846,0.383,7.706,0.668,11.552c0.322,4.339,0.762,8.669,1.146,13.004c0.208,2.351,0.372,4.707,0.619,7.054
		c0.203,1.927,0.581,3.837,0.732,5.766c0.154,1.968,0.094,3.952,0.188,5.926c0.11,2.317,0.283,4.63,0.434,6.945
		c0.138,2.108,0.22,4.222,0.438,6.321c0.372,3.582,0.868,7.151,1.238,10.734c0.216,2.091,0.15,4.216,0.451,6.291
		c0.722,4.982,0.485,10.024,1.065,15.003c0.227,1.942-0.295,4.086,1.291,5.97c0.545-0.139,1.244-0.161,1.763-0.478
		c2.049-1.251,4.07-2.554,6.046-3.917c1.628-1.123,3.317-2.214,4.737-3.572c3.247-3.105,7.269-5.08,10.837-7.711
		c2.402-1.771,5.023-3.261,7.321-5.151c2.268-1.865,5.248-2.781,6.997-5.333c0.248-0.361,0.867-0.455,1.292-0.711
		c1.115-0.672,2.254-1.313,3.317-2.061c1.568-1.103,3.05-2.329,4.623-3.425c1.191-0.83,2.723-1.315,3.642-2.359
		c1.216-1.383,2.755-2.108,4.173-3.111c0.884-0.625,2.076-1.285,2.104-2.927c0.082-4.785-0.42-9.495-1.227-14.487
		c-0.885,0.703-1.549,1.387-2.347,1.83c-1.647,0.914-3.386,1.662-5.05,2.547c-1.327,0.706-2.322,1.819-3.428,2.811
		c-2.379,2.134-5.586,3.265-7.683,5.85c-2.665,0.472-4.323,2.683-6.604,3.833c-2.169,1.093-3.195,0.563-3.672-1.778
		c-0.364-1.789-0.02-3.559-0.273-5.371c-0.434-3.106-0.512-6.278-1.012-9.397c-0.049-0.307,0-0.628-0.022-0.94
		c-0.243-3.455-0.528-6.907-0.728-10.364c-0.282-4.877-1.104-9.706-1.009-14.629c0.031-1.628,0.535-2.826,1.636-3.398
		c1.825-0.949,3.025-2.664,5.054-3.42c1.73-0.645,3.053-2.307,4.696-3.282c1.671-0.991,3.219-2.156,4.754-3.303
		c2.487-1.857,5.474-2.862,7.669-5.337c1.317-1.484,1.466-2.657,1.283-4.283c-0.267-2.357-0.479-4.719-0.726-7.078
		C536.694,357.62,536.54,356.393,536.364,354.88z M459.366,129.1c-2.579,1.317-4.892,2.417-7.128,3.658
		c-4.571,2.537-9.085,5.177-13.652,7.72c-2.942,1.638-5.91,3.233-8.92,4.741c-1.912,0.958-1.959,0.873-1.133,2.863
		c2.687,6.473,5.38,12.943,8.065,19.417c2.492,6.01,4.932,12.043,7.474,18.032c2.848,6.712,5.823,13.371,8.673,20.083
		c3.24,7.633,6.407,15.297,9.598,22.951c3.518,8.438,7.016,16.884,10.548,25.316c1.112,2.656,2.305,5.277,3.502,8.008
		c0.798-0.245,1.408-0.305,1.872-0.596c2.731-1.715,5.451-3.45,8.133-5.242c5.311-3.549,10.594-7.14,15.89-10.712
		c0.821-0.554,1.637-1.116,2.478-1.638c3.076-1.91,5.869-4.217,9.008-6.069c2.62-1.546,4.761-3.898,7.151-5.845
		c1.396-1.137,2.774-2.345,4.324-3.236c3.22-1.851,5.71-4.495,8.442-7.091c-2.096-4.649-4.159-9.227-6.35-14.087
		c-4.417,3.474-8.428,6.936-12.754,9.945c-4.358,3.032-8.393,6.59-13.307,9.14c-1.966-4.496-3.821-8.673-5.62-12.873
		c-2.18-5.09-4.302-10.205-6.469-15.301c-2.405-5.656-4.91-11.27-7.225-16.962c-1.688-4.151-3.904-8.065-5.161-12.423
		c-0.695-2.408-2.279-4.545-3.279-6.883c-2.664-6.227-4.908-12.638-8.177-18.6c-0.119-0.218-0.17-0.472-0.267-0.703
		C463.209,138.25,461.335,133.789,459.366,129.1z M264.868,481.342c0,1.612-0.036,2.919,0.006,4.224
		c0.334,10.398,0.731,20.793,1.014,31.192c0.247,9.045,0.393,18.094,0.542,27.141c0.116,7.039,0.206,14.079,0.233,21.118
		c0.016,4.133-0.151,8.267-0.168,12.401c-0.018,4.302,0.065,8.605,0.065,12.908c0,3.571-0.065,7.142-0.086,10.713
		c-0.015,2.538-0.003,5.075-0.003,8.035c1.278-0.47,2.128-0.723,2.927-1.086c2.997-1.362,5.892-3.01,8.99-4.066
		c2.561-0.872,4.53-2.834,7.266-3.367c1.371-0.267,2.57-1.377,3.87-2.062c1.343-0.708,2.712-1.367,4.073-2.039
		c2.3-1.135,4.619-2.232,6.898-3.407c1.216-0.627,2.334-1.444,3.552-2.065c1.441-0.734,2.958-1.317,4.413-2.025
		c1.157-0.563,2.261-1.236,3.407-1.825c1.642-0.844,3.262-1.748,4.962-2.457c1.615-0.674,2.673-2.12,4.329-2.765
		c1.555-0.605,2.943-1.628,4.436-2.404c1.344-0.699,1.84-1.853,1.858-3.255c0.016-1.233-0.088-2.467-0.115-3.701
		c-0.064-2.931-0.092-5.862-0.18-8.792c-0.031-1.048-0.885-1.592-1.777-1.14c-1.75,0.887-3.483,1.811-5.194,2.773
		c-3.878,2.179-7.715,4.432-11.614,6.572c-2.735,1.501-5.546,2.863-8.561,4.409c-0.577-1.024-1.023-2.069-1.03-3.369
		c-0.017-3.321-0.138-6.641-0.212-9.961c-0.06-2.714-0.138-5.429-0.16-8.143c-0.025-3.044,0.084-6.092-0.014-9.133
		c-0.101-3.125-0.437-6.242-0.567-9.366c-0.105-2.523,0.003-5.055-0.092-7.579c-0.111-2.955-0.399-5.904-0.505-8.859
		c-0.18-5.036-0.221-10.078-0.429-15.113c-0.13-3.146-0.537-6.28-0.678-9.426c-0.181-4.026-0.145-8.063-0.34-12.089
		c-0.225-4.638-0.587-9.269-0.915-13.901c-0.138-1.951-0.34-3.898-0.557-6.349C284.36,469.337,274.557,475.374,264.868,481.342z
		 M92.613,680.525c2.495-18.261,4.985-36.492,7.507-54.957c8.689-3.558,17.427-7.137,26.121-10.697
		c0.356-4.606,0.699-9.032,1.081-13.962c-8.82,3.189-16.97,6.949-25.859,10.089c0.386-3.79,0.738-7.053,1.046-10.319
		c0.547-5.796,0.993-11.602,1.644-17.386c0.189-1.678,0.6-3.38,2.646-4.16c3.568-1.361,7.043-2.966,10.559-4.462
		c3.817-1.623,7.573-3.42,11.476-4.804c3.598-1.275,4.885-3.609,4.824-7.283c-0.052-3.14,0.397-6.288,0.636-9.591
		c-0.772,0.104-1.218,0.068-1.578,0.228c-4.014,1.779-8.023,3.572-12.017,5.395c-3.476,1.587-6.89,3.317-10.406,4.807
		c-7,2.966-13.674,6.633-20.893,9.156c-4.658,1.628-8.975,4.214-13.506,6.234c-1.723,0.768-2.471,1.884-2.695,3.721
		c-0.813,6.671-1.776,13.323-2.634,19.988c-0.732,5.68-1.422,11.365-2.087,17.053c-0.525,4.499-0.942,9.011-1.482,13.508
		c-0.634,5.278-1.517,10.531-1.98,15.823c-0.389,4.45-1.376,8.799-1.742,13.26c-0.471,5.732-1.698,11.397-2.433,17.112
		c-0.622,4.837-1.007,9.705-1.535,14.94c5.804-1.904,11.08-4.48,16.504-6.662C81.33,685.334,86.792,682.967,92.613,680.525z
		 M238.244,492.939c0.239,0.014,0.548,0.132,0.713,0.026c3.523-2.266,7.032-4.553,10.537-6.847c0.905-0.593,1.916-1.098,2.653-1.862
		c3.061-3.173,5.956-6.511,9.077-9.622c1.566-1.561,1.477-3.178,1.055-5.04c-0.767-3.387-1.463-6.79-2.206-10.183
		c-1.502-6.856-3.005-13.712-4.531-20.563c-0.977-4.387-1.997-8.765-2.994-13.148c-0.473-2.08-0.689-4.261-1.471-6.217
		c-1.019-2.549-0.461-4.463,1.355-6.313c1.959-1.995,3.82-4.087,5.727-6.133c0.62-0.665,1.228-1.343,1.881-1.976
		c2.697-2.616,5.448-5.18,8.078-7.862c0.418-0.427,0.538-1.397,0.425-2.051c-0.489-2.818-1.091-5.618-1.706-8.412
		c-0.255-1.162-0.644-2.295-1.064-3.763c-1.235,0.745-2.374,1.167-3.154,1.948c-3.331,3.335-6.501,6.831-9.843,10.154
		c-1.717,1.707-3.041,3.891-5.44,5.021c-0.333-0.421-0.72-0.698-0.802-1.047c-0.889-3.804-1.71-7.623-2.597-11.427
		c-0.292-1.25-0.805-2.449-1.075-3.703c-0.821-3.816-1.365-7.705-2.417-11.452c-0.826-2.944,0.628-4.941,2.404-6.514
		c2.031-1.799,3.986-3.648,5.828-5.625c1.68-1.803,3.221-3.744,4.975-5.47c1.468-1.444,3.117-2.714,4.756-3.969
		c2.241-1.716,2.757-3.744,1.842-6.442c-0.897-2.645-1.404-5.422-2.162-8.459c-0.6-0.48-1.568-1.355-2.743-0.359
		c-2.315,1.963-4.631,3.938-6.796,6.061c-2.378,2.333-4.553,4.873-6.878,7.262c-3.284,3.375-6.63,6.689-9.936,10.043
		c-1.133,1.149-2.225,2.322-3.179,3.647c-0.649,0.902-1.78,1.441-2.537,2.285c-1.461,1.627-2.585,3.641-4.267,4.962
		c-1.735,1.362-2.579,3.362-4.461,4.688c-3.683,2.597-4.024,5.38-2.679,9.773c0.356,1.162,1.292,2.306,1.191,3.306
		c-0.242,2.413,0.763,4.48,1.245,6.677c0.851,3.872,1.925,7.695,2.834,11.555c0.642,2.726,1.126,5.489,1.755,8.218
		c0.804,3.488,1.728,6.948,2.515,10.44c0.683,3.029,1.218,6.092,1.871,9.128c0.982,4.569,2.063,9.117,3.004,13.694
		c1.133,5.513,2.152,11.05,3.244,16.571c0.494,2.496,1.059,4.978,1.567,7.472c0.61,2.995,1.179,5.999,1.792,8.993
		C236.474,484.507,237.34,488.603,238.244,492.939z M227.883,504.153c0.437,41.147-0.369,82.367-2.199,123.659
		c0.617-0.04,0.864-0.007,1.077-0.078c2.482-0.823,4.691-2.478,7.469-2.432c0.252,0.004,0.485-0.433,0.771-0.582
		c2.923-1.527,5.82-3.113,8.798-4.527c2.218-1.053,4.567-1.824,6.814-2.821c1.874-0.832,3.735-1.719,5.503-2.751
		c1.339-0.782,2.879-1.556,2.911-3.471c0.066-3.886,0.115-7.771,0.138-11.657c0.004-0.629-0.264-1.262-0.238-1.887
		c0.143-3.436,0.459-6.869,0.493-10.306c0.087-8.967,0.04-17.935,0.086-26.903c0.019-3.768,0.24-7.536,0.19-11.302
		c-0.075-5.652-0.344-11.301-0.463-16.953c-0.122-5.808-0.15-11.618-0.244-17.427c-0.084-5.161-0.178-10.322-0.313-15.482
		c-0.1-3.808-0.253-7.615-0.443-11.419c-0.025-0.5-0.409-0.982-0.686-1.605C247.65,492.198,237.935,498.073,227.883,504.153z"/>
	<path d="M433.096,281.129c-0.772-1.868-1.617-3.71-2.302-5.609c-1.604-4.443-3.161-8.903-4.681-13.375
		c-1.891-5.56-3.701-11.148-5.598-16.707c-0.692-2.026-1.541-3.998-2.305-5.999c-1.194-3.125-2.382-6.252-3.562-9.382
		c-1.426-3.784-2.797-7.589-4.271-11.354c-1.699-4.341-3.439-8.667-5.246-12.964c-1.282-3.047-2.978-5.946-3.998-9.071
		c-1.391-4.262-3.749-8.071-5.262-12.258c-0.276-0.765-0.751-1.477-1.233-2.143c-0.524-0.723-1.488-1.278-1.693-2.055
		c-0.736-2.796-1.232-5.655-1.438-8.64c0.568,1.057,1.215,2.08,1.69,3.178c2.268,5.247,4.282,10.614,6.775,15.75
		c3.718,7.661,6.58,15.667,9.934,23.472c2.266,5.272,4.42,10.593,6.544,15.923c2.559,6.421,4.936,12.916,7.574,19.304
		c2.121,5.134,4.504,10.16,6.789,15.225c0.753,1.669,1.546,3.32,2.354,4.963c1.881,3.825,1.197,7.721,0.487,11.622
		C433.466,281.051,433.281,281.09,433.096,281.129z"/>
	<path d="M567.68,171.009c-0.051,0.277-0.054,0.539-0.147,0.763c-1.239,2.972-3.389,5.122-6.208,6.574
		c-1.02,0.525-2.606-0.14-3.189-1.236c-0.585-1.098-0.987-2.293-1.497-3.433c-2.509-5.615-5.023-11.227-7.542-16.837
		c-1.363-3.035-2.758-6.056-4.108-9.097c-2.159-4.866-4.269-9.755-6.446-14.613c-1.254-2.797-2.657-5.527-3.887-8.334
		c-1.091-2.49-1.994-5.062-3.059-7.564c-1.039-2.441-2.193-4.833-3.272-7.257c-1.114-2.504-2.22-5.013-3.287-7.537
		c-0.6-1.419,0.299-4.037,1.589-5.022c1.114-0.851,2.169-1.78,3.262-2.659c1.729-1.391,3.832-0.942,4.698,1.101
		c1.634,3.855,3.076,7.795,4.788,11.614c2.483,5.539,5.188,10.979,7.697,16.507c1.848,4.072,3.508,8.229,5.299,12.327
		c1.428,3.267,2.918,6.507,4.396,9.752c2.537,5.568,5.106,11.121,7.621,16.699c1.015,2.251,1.934,4.546,2.875,6.829
		C567.454,170.047,567.548,170.546,567.68,171.009z"/>
	<path d="M435.267,425.057c-0.244-1.112-0.502-1.882-0.571-2.67c-0.42-4.8-0.762-9.607-1.198-14.406
		c-0.433-4.772-0.924-9.54-1.43-14.305c-0.339-3.197-0.223-3.483,2.761-4.962c1.16-0.575,2.252-1.324,3.697-1.066
		c2.151,0.385,2.688,0.805,3.039,2.957c0.68,4.164,0.955,8.362,1.137,12.577c0.12,2.771,0.702,5.521,0.82,8.292
		c0.094,2.209,0.201,4.531-0.966,6.546C440.903,420.877,438.764,423.301,435.267,425.057z"/>
	<path d="M398.544,350.613c-0.977-3.054-1.804-5.564-2.583-8.089c-1.389-4.504-2.722-9.025-4.127-13.524
		c-1.746-5.592-3.558-11.163-5.308-16.754c-0.542-1.732-0.998-3.492-1.439-5.252c-0.092-0.369-0.105-0.991,0.113-1.166
		c1.279-1.031,2.515-2.276,3.998-2.854c1.945-0.758,3.901,0.454,4.633,2.649c0.699,2.097,1.046,4.309,1.703,6.423
		c0.735,2.363,1.708,4.652,2.467,7.009c1.705,5.299,3.344,10.619,5.001,15.934c0.364,1.166,0.695,2.342,1.032,3.516
		c1.145,3.999-0.42,7.113-3.211,9.828C400.192,348.948,399.577,349.579,398.544,350.613z"/>
	<path d="M380.392,291.686c-1.138-3.29-2.181-6.244-3.182-9.211c-1.23-3.644-2.455-7.29-3.623-10.954
		c-0.553-1.735-0.941-3.522-1.455-5.271c-0.538-1.831-1.074-3.666-1.732-5.455c-0.381-1.035-0.471-2.075,0.231-2.833
		c0.936-1.012,2.015-2.009,3.23-2.618c1.581-0.792,3.388-0.011,4.245,1.78c0.757,1.582,1.226,3.307,1.77,4.986
		c0.811,2.506,1.555,5.035,2.367,7.541c1.044,3.224,2.344,6.384,3.142,9.666c1.08,4.439-0.29,8.32-3.566,11.502
		C381.54,291.09,381.143,291.237,380.392,291.686z"/>
	<path d="M308.561,341.4c1.493,3.623,2.98,7.248,4.482,10.867c0.979,2.36,2.068,4.678,2.941,7.075
		c0.757,2.08,1.461,4.167,2.401,6.181c0.701,1.5,0.324,2.429-1.056,3.315c-1.859,1.193-3.752,2.332-6.088,3.777
		c-0.96-7.238-1.917-13.982-2.726-20.744c-0.413-3.449-0.561-6.929-0.829-10.395C307.977,341.451,308.269,341.425,308.561,341.4z"/>
	<path d="M179.86,570.638c0.238,2.33,0.543,4.655,0.7,6.99c0.394,5.833,0.696,11.673,1.475,17.474
		c0.066,0.492,0.07,0.994,0.092,1.492c0.122,2.736,0.033,2.87-2.388,3.877c-1.23,0.511-2.437,1.078-3.678,1.56
		c-0.659,0.256-1.368,0.386-2.521,0.7c1.586-11.062,3.872-21.549,5.472-32.153C179.297,570.598,179.578,570.618,179.86,570.638z"/>
</g>
</svg>
