<svg xmlns="http://www.w3.org/2000/svg" width="752.615" height="732.825" viewBox="0 0 752.615 732.825"><path d="M753.37 49.286c-3.729 2.819-7.496 5.591-11.182 8.466-17.179 13.399-34.335 26.829-51.502 40.244-8.847 6.913-17.715 13.799-26.538 20.742-1.907 1.5-3.703 3.149-5.48 4.804-1.952 1.817-4.295 3.105-6.358 4.715-9.773 7.629-19.454 15.386-28.934 23.375-5.954 5.017-11.481 10.54-17.225 15.807-15.567 14.274-31.059 28.631-46.772 42.742-5.538 4.974-11.616 9.349-17.474 13.964-12.374 9.748-24.839 19.383-37.113 29.256-4.528 3.643-9.502 6.542-14.324 9.7-6.927 4.537-13.93 8.959-20.895 13.44-5.415 3.484-10.801 7.016-16.246 10.453-1.276.805-2.156 1.689-2.484 3.229-.615 2.888-1.985 5.418-3.574 7.934-1.346 2.131-2.221 4.677-2.785 7.158a105.63 105.63 0 0 0-2.007 12.134c-.736 6.857-2.919 13.345-4.685 19.943-.837 3.127-1.695 6.247-2.34 9.532 35.114-20.571 69.661-41.923 104.805-62.269 35.14-20.345 70.281-40.688 105.882-61.299 0 1.986.033 3.448-.005 4.907-.487 18.599-.916 37.2-1.501 55.795-.439 13.987-1.089 27.967-1.608 41.952-.029.779.325 1.566.427 2.358.082.641.131 1.304.062 1.943-.765 7.134-1.509 14.27-2.356 21.395-.527 4.436-.787 8.906-2.169 13.229-.755 2.361-1.021 4.883-1.427 7.346-.101.616.112 1.284.194 2.055-.637.551-1.301 1.187-2.026 1.744-5.972 4.59-11.879 9.27-17.967 13.7-3.013 2.193-6.374 3.906-9.565 5.858-1.892 1.157-3.762 2.351-5.636 3.538-3.728 2.362-7.376 4.863-11.193 7.071-8.14 4.708-15.802 10.157-23.785 15.106-6.15 3.812-12.277 7.68-18.227 11.794-7.844 5.423-15.499 11.118-23.246 16.681-8.894 6.386-17.823 12.724-26.693 19.144-5.414 3.919-10.731 7.973-16.115 11.934-7.738 5.693-15.499 11.355-23.247 17.035-6.273 4.598-12.512 9.245-18.821 13.793-7.603 5.481-15.325 10.798-22.887 16.335-14.958 10.953-31.26 19.736-47.073 29.307-9.169 5.55-18.367 11.062-27.697 16.334a1607.103 1607.103 0 0 1-35.894 19.699c-10.705 5.693-21.494 11.24-32.391 16.554-13.813 6.736-27.773 13.171-41.669 19.737-8.25 3.898-16.404 8.016-24.769 11.649-11.415 4.958-22.755 10.114-34.562 14.139-7.337 2.502-14.573 5.3-21.852 7.973-4.369 1.604-8.73 3.227-13.098 4.831-10.59 3.886-21.202 7.715-31.766 11.672-4.379 1.64-8.648 3.573-12.992 5.308-.895.357-1.91.402-2.859.634-.723.177-1.459.354-2.14.646-25.697 11.017-51.394 22.034-77.072 33.095-2.979 1.283-5.847 2.823-8.772 4.23-.362.174-.762.268-1.046.366-.208-.098-.294-.122-.357-.174-.057-.047-.125-.124-.125-.188-.041-39.975-.077-79.951-.108-119.926-.001-.659.06-1.319.096-2.046 4.215-1.698 8.343-3.426 12.519-5.032a7889.557 7889.557 0 0 1 36.96-14.109c5.916-2.24 11.903-4.293 17.798-6.583 4.58-1.779 9.063-3.81 13.599-5.702 7.074-2.951 14.205-5.768 21.225-8.841a2656.78 2656.78 0 0 0 36.671-16.373c9.167-4.181 18.383-8.294 27.312-12.947 13.137-6.845 26.039-14.143 39.039-21.251 1.47-.803 2.9-1.686 4.402-2.42 1.516-.741 1.96-1.841 1.716-3.47-.905-6.044-1.736-12.099-2.597-18.149-1.329-9.341-2.566-18.696-4.024-28.016-.915-5.853-2.133-11.66-3.269-17.477-1.12-5.732-2.192-11.478-3.503-17.167-1.232-5.347-2.782-10.621-4.126-15.943a151.55 151.55 0 0 1-1.823-8.301c-.109-.562.038-1.368.39-1.795 5.84-7.079 11.739-14.109 17.611-21.161 7.818-9.389 16.712-17.761 25.142-26.571 8.748-9.142 17.533-18.255 26.54-27.139 3.86-3.807 8.263-7.077 12.523-10.46 23.628-18.758 47.29-37.474 70.927-56.22.845-.67 1.613-1.463 2.317-2.285 10.844-12.67 21.657-25.367 32.529-38.014.896-1.042 2.162-1.766 3.252-2.642.579-.465 1.201-.891 1.712-1.423 1.334-1.39 2.68-2.778 3.903-4.264 1.156-1.406 2.58-2.036 4.475-2.075.583 1.457 1.216 2.876 1.723 4.338a415.846 415.846 0 0 1 3.288 9.843c1.058 3.316 1.98 6.676 3.074 9.979.695 2.098 1.605 4.123 2.396 6.19.355.927.79 1.852.954 2.818.639 3.755 2.12 7.219 3.474 10.74.818 2.126 1.287 4.383 1.981 6.559 1.424 4.467 2.917 8.912 4.341 13.379 1.656 5.196 3.225 10.42 4.914 15.605 1.698 5.215 3.705 10.338 5.185 15.611 1.174 4.183 2.459 8.294 4.26 12.239.375.822.857 1.663 1.494 2.287 1.616 1.583 3.633 1.852 5.084-.734 1.701-3.033 2.587-6.35 2.869-9.723.554-6.621 2.657-12.758 5.311-18.734 1.014-2.283 2.46-4.391 3.846-6.488 2.951-4.466 6.042-8.84 8.963-13.325.887-1.362 1.452-2.946 2.077-4.464 1.438-3.491 2.56-7.051 1.69-10.896-.27-1.192-.641-2.364-1.017-3.529-1.842-5.712-4.564-11.062-6.834-16.599-2.116-5.162-4.167-10.35-6.263-15.519-2.087-5.145-4.086-10.329-6.32-15.409-2.929-6.661-5.885-13.307-8.593-20.062-1.229-3.066-2.664-6.049-3.931-9.101-1.046-2.52-1.937-5.104-2.977-7.626a320.203 320.203 0 0 0-3.831-8.869c-.664-1.481-1.453-2.907-2.27-4.525-1.784.799-3.295 1.453-4.786 2.147-3.303 1.539-6.59 3.11-9.895 4.645-2.962 1.377-6.024 2.567-8.883 4.129-2.601 1.422-5.115 3.102-6.307 6.125-1.033-1.535-1.979-5.591-1.759-7.109.134-.927.626-1.413 1.471-1.813 4.225-1.996 8.393-4.112 12.623-6.098 3.693-1.734 7.453-3.326 11.162-5.026 4.114-1.886 8.251-3.729 12.292-5.762 5.646-2.84 11.675-4.957 16.769-8.853 1.051-.804 2.151-1.761 3.375-2.076 2.12-.544 3.258-2.331 4.977-3.362 2.653-1.592 5.086-3.55 7.715-5.426l1.651.663.269-.291-.738-.961c1.905-1.333 3.78-2.717 5.727-3.989 2.524-1.648 4.812-3.679 7.661-4.81 2.822-3.249 6.968-4.66 10.24-7.331 1.715-1.4 3.475-3.159 5.991-3.453.406-.047.621-1.072 1.082-1.455.809-.672 1.745-1.191 2.62-1.784 2.938-1.991 5.892-3.96 8.806-5.986 7.904-5.496 15.863-10.916 23.668-16.549 18.951-13.677 37.826-27.46 56.735-41.196C595.45 25.238 608.137 16.05 620.8 6.829c2.822-2.055 5.568-4.214 8.349-6.326h15.59c-.297.498-.732.961-.871 1.5-1.275 4.972-1.07 9.831 1.245 14.504 1.426 2.878 3.077 5.676 4.159 8.678.576 1.599 1.394 2.946 2.345 4.226 2.21 2.975 5.362 4.415 8.971 4.668 4.192.294 8.401.442 12.604.48 5.205.047 10.413-.012 15.616-.16 3.826-.109 7.622-.26 11.427.451 3.109.581 5.622 1.866 7.023 4.802 1.417 2.97 2.405 6.209 4.207 8.913 2.05 3.076 1.68 5.622-.397 8.222-1.398 1.75-3.012 3.326-5.23 4.038-1.989.639-2.686.3-3.565-1.543a1963.466 1963.466 0 0 0-5.16-10.756c-.717-1.481-1.832-2.864-2.158-4.419-.587-2.796-2.885-4.544-3.518-7.097-1.982-.049-2.544 1.537-3.63 2.333-2.539 1.861-4.914 3.946-7.46 5.795-4.355 3.162-8.297 6.872-12.944 9.654-.963.577-1.725 1.559-2.424 2.474-.268.352-.295 1.122-.102 1.555a314.032 314.032 0 0 0 4.454 9.606 787.243 787.243 0 0 0 6.192 12.405c.579 1.14 1.141 2.356 1.99 3.281 2.457 2.677 5.308 4.638 9.217 4.423 3.957-.218 7.693-1.276 11.315-2.787 6.923-2.887 12.531-7.841 18.574-12.081 2.456-1.723 4.278-4.326 6.497-6.414 2.997-2.821 5.928-5.707 8.438-8.967 1.965-2.552 3.859-5.178 5.54-7.921 1.332-2.173 2.421-4.522 3.378-6.89.792-1.958 1.568-4.025 1.764-6.1.468-4.959.238-9.761-2.653-14.278-2.12-3.313-3.44-7.145-5.044-10.778-1.141-2.585-2.971-4.798-5.253-6.096-3.807-2.166-8.298-2.148-12.575-2.228-4.894-.091-9.797.293-14.695.498-2.466.103-4.928.302-7.394.394-4.159.154-8.348.475-12.409-.74-2.112-.632-4.23-1.41-5.287-3.644h11.567c1.134 1.28 1.358 1.28 2.515 0h58.841l3.52.503.001 48.279zM392.345 397.267c-1.17.574-2.033.901-2.793 1.388a2151.363 2151.363 0 0 0-13.481 8.725c-3.767 2.453-7.447 5.051-11.311 7.337-2.163 1.28-2.291 2.983-2.055 5.082.712 6.344 1.799 12.644 2.212 19.023.102 1.578.318 3.149.491 4.723.374 3.391.775 6.779 1.126 10.172.271 2.623.478 5.253.722 7.879.192 2.063.624 4.134.538 6.184-.098 2.351.266 4.628.489 6.931.284 2.934.472 5.858.541 8.816.071 3.077.792 6.142.779 9.299-.012 2.837.717 5.671 1.012 8.517.305 2.947.467 5.908.717 8.86.25 2.954.788 5.911.727 8.857-.06 2.912.441 5.741.565 8.609.073 1.696.066 3.719-.769 5.055-1.273 2.035-2.993 3.892-5.574 4.673-2.734.828-4.256-.045-4.3-2.912-.068-4.445-.263-8.879-.857-13.286-.202-1.497.411-3.082-.495-4.498.888-2.649-.355-5.179-.461-7.776-.176-4.283-.564-8.558-.828-12.838-.173-2.804-.232-5.616-.438-8.417-.182-2.474-.54-4.935-.742-7.408-.348-4.272-.601-8.552-.958-12.824a1535.54 1535.54 0 0 0-1.468-16.31c-.312-3.307-.686-6.608-1.028-9.912-.368-3.553-.713-7.109-1.102-10.659-.258-2.353-.577-4.699-.916-7.437-9.952 6.575-19.309 13.398-28.596 19.825.093 1.404.142 2.384.225 3.361.372 4.392.786 8.781 1.125 13.175.492 6.38.901 12.766 1.405 19.145.36 4.56.904 9.107 1.213 13.67.383 5.659.564 11.332.912 16.995.401 6.524.938 13.04 1.322 19.565.246 4.186.291 8.377.681 12.562.369 3.963.468 7.961.47 11.944.001 2.824.88 5.261 2.183 7.705 1.27 2.382 3.325 3.333 5.726 3.737 3.114.524 6.265.018 9.226-.742 3.299-.846 6.709-1.514 9.755-3.29 2.065-1.204 4.269-2.276 6.544-2.98 2.003-.62 3.702-1.751 5.208-2.947 2.985-2.37 6.886-3.447 9.255-6.638 2.762-1.201 4.326-3.788 6.457-5.706 2.136-1.923 3.928-4.24 5.779-6.462 1.124-1.35 2.08-2.841 3.099-4.277.575-.811 1.059-1.696 1.698-2.452 1.205-1.427 3.17-4.785 3.689-6.599.312-1.091.342-2.315.864-3.282 1.577-2.917 1.372-6.093 1.616-9.211.098-1.247.296-2.513.176-3.744-.27-2.782-.8-5.538-1.055-8.321-.239-2.603-.217-5.229-.388-7.84-.178-2.724-.428-5.444-.682-8.162-.233-2.495-.569-4.98-.76-7.478-.451-5.905-.816-11.816-1.267-17.721-.221-2.893-.611-5.774-.826-8.667-.292-3.932-.388-7.882-.755-11.806-.479-5.123-1.142-10.228-1.725-15.341-.654-5.74-1.291-11.483-1.97-17.22-.255-2.137-.605-4.262-.947-6.651zm103.991-278.842c-.148 4.232 1.423 7.853 2.855 11.487.71 1.803 1.793 3.455 2.548 5.243 1.549 3.67 2.962 7.397 4.492 11.075.538 1.294 1.326 2.484 1.872 3.775 2.167 5.122 4.275 10.269 6.423 15.4a197.337 197.337 0 0 0 2.293 5.233c2.019 4.46 4.094 8.896 6.076 13.372 2.461 5.556 4.777 11.178 7.294 16.708 2.242 4.926 6.457 6.964 11.616 6.999 3.191.022 6.35-.812 9.239-2.155 3.342-1.553 6.664-3.245 9.725-5.281 3.487-2.319 6.762-4.984 9.973-7.684 3.243-2.727 6.352-5.621 9.405-8.56 1.596-1.536 3.147-3.195 4.363-5.034 1.851-2.802 4.35-5.142 5.702-8.306.808-1.89 2.118-3.571 2.871-5.477.968-2.448 1.616-5.024 2.381-7.552 1.026-3.395.781-6.782.126-10.226-.716-3.767-2.83-6.917-4.262-10.361-2.522-6.065-5.34-12.006-8.033-18-1.582-3.521-3.183-7.035-4.739-10.568-1.893-4.301-3.754-8.615-5.617-12.929a2827.955 2827.955 0 0 1-4.797-11.187c-.477-1.118-.864-2.279-1.399-3.368-1.144-2.329-2.391-4.608-3.534-6.937-1.979-4.034-5.683-5.789-9.672-6.532-3.434-.639-6.987.412-10.363 1.266-2.126.538-4.04 1.895-6.071 2.835-.938.434-1.972.673-2.884 1.149-.706.368-1.259 1.018-1.936 1.456-2.405 1.554-4.964 2.902-7.225 4.639-3.919 3.01-7.657 6.257-11.479 9.394-.694.57-1.515 1.01-2.126 1.653-.893.941-1.572 2.088-2.478 3.014-3.959 4.049-7.345 8.511-9.775 13.637-1.795 3.788-2.827 7.788-2.864 11.822zM457.833 418.13c1.709-3.458 3.511-6.142 5.616-8.637.296-.35.633-.681.855-1.075.699-1.24 1.149-2.685 2.064-3.727 2.097-2.386 2.876-5.359 3.885-8.191 1.926-5.404 1.617-11.003.952-16.602-.31-2.608-.451-5.235-.682-7.852-.224-2.545-.391-5.11-1.48-7.475-1.364-2.963-3.569-4.828-6.96-4.853-4.124-.03-8.125.941-11.85 2.52-7.439 3.154-14.198 7.563-20.956 11.974-6.924 4.519-14.041 8.741-21.086 13.073-2.767 1.702-5.567 3.349-8.313 4.998-.081.816-.255 1.489-.194 2.141.267 2.839.586 5.673.916 8.506.432 3.71.922 7.413 1.334 11.125.504 4.536.971 9.077 1.419 13.619.219 2.221.329 4.452.541 6.674.371 3.875.823 7.743 1.166 11.621.349 3.941.545 7.895.922 11.833.391 4.084 1.282 8.154 1.296 12.233.018 5.493 1.222 10.862 1.16 16.357-.04 3.585.53 7.177.836 10.766.238 2.788.225 5.632.806 8.348.642 2.997.384 6.041 1.016 9.047.601 2.861.312 5.901.619 8.84.075.722.826 1.547 1.49 1.986.685.454 1.307-.111 1.85-.745.454-.529 1.2-.807 1.813-1.201 1.584-1.018 3.202-1.988 4.735-3.079.992-.706 1.879-1.566 2.77-2.402.546-.512 1.401.039 1.969-1.002.623-1.141 2.015-1.914 3.175-2.697 2.298-1.551 4.681-2.976 7-4.497 1.242-.815 2.424-1.722 3.819-2.721.152-.908.455-2.096.53-3.298.181-2.899-.774-5.707-.531-8.669.25-3.042-.628-6.086-.69-9.189-.094-4.68-.757-9.348-1.149-14.024-.198-2.36-.318-4.727-.504-7.089-.109-1.388-.555-2.811-.363-4.148.397-2.77-.396-5.388-.62-8.073-.263-3.152-.574-6.3-.81-9.454-.025-.333.285-.716.497-1.038 1.171-1.776 3.163-2.325 4.952-3.015 2.348-.905 4.22.472 4.437 3.052.208 2.481.31 4.971.423 7.459.122 2.701 1.113 5.366.346 8.109-.061.218.068.485.089.731.26 3.007.532 6.014.767 9.023.176 2.251.08 4.549.5 6.75.78 4.088.967 8.253 2.051 12.321.706 2.649 1.369 5.205 2.718 7.611.542.966 1.12 1.573 2.134 1.793.473-.249.951-.427 1.343-.72 2.738-2.051 5.447-4.141 8.189-6.188 2.086-1.557 4.217-3.054 6.307-4.605 1.59-1.18 3.117-2.446 4.726-3.598 1.518-1.087 3.099-2.087 4.665-3.105 1.749-1.137 1.871-1.831 1.051-3.771-1.112-2.632-2.083-5.323-3.092-7.998-.171-.454-.411-.996-.307-1.421.614-2.533-.886-4.77-.928-7.23-.032-1.891-1.167-3.871-.848-5.637.571-3.159-.91-6.197-.087-9.28-1.401-3.634-.96-7.51-.985-11.216-.025-3.681-.713-6.967-2.06-10.305-.556-1.378-1.371-2.18-2.571-2.763-2.864-1.39-5.803-1.789-8.893-.728-1.05.358-2.185.474-3.79.808zM562.434 53.652c.637 1.643 1.158 3.088 1.753 4.501.954 2.264 1.988 4.494 2.932 6.762.952 2.287 1.785 4.624 2.763 6.899 1.166 2.713 2.446 5.376 3.647 8.074 1.32 2.965 2.558 5.968 3.917 8.915 1.682 3.647 3.535 7.217 5.162 10.888 2.013 4.541 3.799 9.183 5.812 13.724 1.915 4.318 4.273 8.459 5.93 12.867 1.938 5.157 4.39 10.051 6.879 14.925 1.155 2.262 3.005 4.326 5.626 4.976 4.398 1.091 8.851.66 12.971-1.082 5.107-2.159 10.134-4.56 14.748-7.703 2.73-1.86 5.611-3.544 8.129-5.658 2.151-1.806 4.132-3.814 6.436-5.458 1.001-.714 1.929-1.562 2.77-2.461 2.433-2.6 4.851-5.217 7.188-7.904 2.66-3.058 5.023-6.337 7.031-9.872 1.466-2.581 2.752-5.234 3.524-8.106.961-3.578 1.308-7.239.018-10.752-1.338-3.647-3.032-7.167-4.646-10.708-1.754-3.848-3.606-7.652-5.397-11.484a3950.5 3950.5 0 0 1-7.134-15.346c-2.763-5.98-5.502-11.97-8.263-17.951-1.565-3.39-3.146-6.772-4.731-10.152-1.013-2.159-2.057-4.304-3.068-6.464-1.905-4.071-3.797-8.148-5.694-12.222-.505.146-.777.154-.959.287-3.274 2.391-6.548 4.782-9.798 7.206-1.837 1.369-3.623 2.806-5.445 4.195-.912.695-1.877 1.323-2.775 2.035-1.431 1.134-2.66 2.737-4.277 3.377-2.575 1.02-3.889 3.238-5.914 4.812.253.984.268 1.996.737 2.711 3.213 4.895 4.513 10.646 7.18 15.787 1.855 3.575 3.393 7.313 5.062 10.984.448.985.844 1.994 1.288 2.981 1.391 3.087 2.775 6.178 4.196 9.251 1.516 3.277 3.105 6.521 4.602 9.807 2.537 5.568 5.008 11.166 7.541 16.735a2587.604 2587.604 0 0 0 7.552 16.412c.632 1.363.303 2.598-.418 3.772-1.155 1.879-2.781 3.311-4.669 4.389-2.307 1.316-4.257.869-5.223-2.061-.286-.866-.599-1.73-.992-2.552-.888-1.861-1.899-3.665-2.744-5.544-3.233-7.19-6.397-14.412-9.635-21.6-1.787-3.967-3.714-7.872-5.5-11.84-2.072-4.603-4.065-9.241-6.079-13.87-1.321-3.037-2.598-6.093-3.937-9.122-.866-1.959-1.834-3.874-2.712-5.828-1.652-3.678-3.264-7.374-4.918-11.051-.164-.366-.558-.624-.748-.984-.531-1.009-1.34-.588-1.949-.283-.746.373-1.373.989-2.041 1.513-2.458 1.928-4.857 3.936-7.379 5.775-4.025 2.936-8.156 5.724-12.19 8.648-2.062 1.493-4.011 3.149-6.159 4.85zM394.8 224.659c-1.65 0-3.616-.151-5.549.034-3.202.307-6.026 1.751-8.624 3.55-2.848 1.973-5.706 3.967-8.328 6.222-2.113 1.818-3.875 4.043-5.803 6.077-1.531 1.615-3.084 3.209-4.616 4.822-1.481 1.56-2.906 3.175-4.432 4.689-2.158 2.139-4.384 4.211-6.587 6.305-3.085 2.933-6.117 5.926-9.294 8.757-1.284 1.144-1.377 2.355-1.014 3.799.48 1.91.949 3.825 1.487 5.719.718 2.531 1.508 5.043 2.249 7.568 1.044 3.562 2.081 7.126 3.102 10.694.834 2.916 1.616 5.847 2.465 8.759.967 3.317 2.021 6.61 2.967 9.933 1.104 3.875 2.098 7.781 3.206 11.654.819 2.862 1.821 5.673 2.603 8.545 1.417 5.202 2.721 10.435 4.092 15.649 1.46 5.554 2.963 11.097 4.41 16.654.882 3.39 1.698 6.796 2.534 10.198.669 2.725 1.286 5.464 1.997 8.178.449 1.711 1.03 3.388 1.631 5.338 1.801-1.104 3.366-1.986 4.848-2.99 2.886-1.955 5.716-3.993 8.59-5.968 1.288-.885 2.679-1.627 3.93-2.558 4.933-3.672 9.868-7.343 14.728-11.111 4.922-3.815 9.806-7.657 13.701-12.631 4.224-5.395 6.984-11.432 8.489-18.053 1.704-7.496.849-14.897-1.342-22.158-1.906-6.316-3.946-12.594-6.047-18.848-1.268-3.775-2.644-7.524-4.197-11.189-1.463-3.455-4.254-3.773-7.021-3.137-2.314.532-4.47 1.747-6.702 2.646-.561.226-1.142.402-2.153.753.602-1.265 1.031-2.056 1.364-2.885 1.107-2.752 2.397-5.456 3.21-8.295 1.023-3.571 1.677-7.195 1.905-10.992.268-4.467-.942-8.503-1.932-12.646-.549-2.298-1.68-4.453-2.295-6.74-.602-2.239-1.421-4.389-2.141-6.581-1.119-3.4-2.779-6.47-5.431-9.761zm191.97 132.839c1.479 2.493 2.653 5.225 2.595 8.339-.008.409.174.818.213 1.232.154 1.599.547 3.235.336 4.787-.139 1.022-.11 1.823.213 2.778.809 2.395.255 4.805-.478 7.086-.3.933-1.964 1.596-1.989 2.413-.051 1.697-1.563 1.427-2.268 2.072-.943.863-2.456 1.236-3.787 1.489-.727.138-1.682-.255-2.346-.694-.419-.276-.582-1.06-.698-1.649-.179-.908-.219-1.844-.319-2.768-.264-2.437-.62-4.869-.762-7.313-.103-1.778.604-3.775.011-5.312-.964-2.498-.978-4.993-.964-7.498.01-1.915-.602-3.351-1.848-4.809-2.271 2.052-5.102 2.801-7.397 4.633-2.933 2.34-6.361 4.068-9.613 5.997-.732.435-1.994.38-2.35.958-.652 1.057-1.829 1.177-2.574 1.988-.744.809-1.589 1.679-2.571 2.078-1.363.554-2.071 1.297-2.027 2.771.066 2.219-.161 4.482.203 6.647.554 3.293.413 6.631.978 9.924.299 1.74.125 3.56.348 5.375.401 3.273.349 6.622 1.201 9.829.466 1.756 1.045 3.641 2.13 5.034 1.469 1.886 4.173 1.865 6.186 3.007 1.342-.753 3.119.928 4.294-.766 5.248-.559 9.811-3.165 14.636-4.97 1.08-.404 1.836-1.6 2.869-2.216 1.994-1.19 4.067-2.254 6.134-3.317.962-.495 2.047-.769 2.965-1.327.737-.447 1.216-1.47 1.971-1.695.986-.294 1.507-1.142 2.261-1.622 1.426-.907 3.206-1.221 4.38-2.538.853-.957 1.936-1.764 2.574-2.84.603-1.016 2.534-.813 2.226-2.553-.009-.053.272-.155.415-.238 2.55-1.483 4.261-3.849 6.22-5.949.819-.878 1.678-1.782 2.233-2.826.49-.921 2.165-1.205 1.539-2.766-.052-.131.378-.597.658-.692.954-.324 1.237-1.197 1.699-1.917 1.332-2.077 1.922-4.59 3.751-6.384.111-.109-.015-.461-.034-.7l-.187-2.406 1.607-1.382c.134-1.825.268-3.687.414-5.548.017-.212.032-.516.166-.613.883-.639.502-1.565.25-2.165-.733-1.747-.285-3.544-.506-5.3-.139-1.1-.35-2.191-.556-3.281-.06-.319-.306-.617-.314-.929-.084-3.313-.204-6.594-.635-9.912-.309-2.38-1.216-4.474-2.042-6.492-.927-2.265-3.178-3.91-5.355-5.255-2.265-1.4-5.171-1.209-7.376-2.829-.097-.071-.336.084-.485.045-2.788-.719-5.608-1.342-8.349-2.214-2.568-.817-5.193-1.361-7.795-2.019-1.03-.261-2.126-.31-3.119-.662-2.293-.814-4.637-1.572-6.782-2.693-2.158-1.128-4.112-2.678-4.736-5.266-.68-2.817-1.437-5.626-1.898-8.481-.522-3.239-.916-6.568 1.263-9.459 1.023-1.357 2.068-2.759 3.357-3.835 1.331-1.111 3.674-.267 4.265 1.426.472 1.352.812 2.778.984 4.199.24 1.983-.079 4.095.478 5.962.676 2.265.42 4.556.864 6.797.357 1.805.635 3.625.999 5.73.934-.432 1.547-.64 2.081-.976 1.919-1.208 3.797-2.48 5.716-3.688 1.531-.963 3.138-1.807 4.641-2.81 2.152-1.436 4.224-2.99 6.36-4.451 1.082-.74 2.256-1.346 3.336-2.089 1.462-1.006 2.958-1.991 4.28-3.165.942-.838 1.379-2.062 1.162-3.391-.895-5.47-1.819-10.936-1.84-16.504-.001-.4-.23-.796-.317-1.201-.261-1.215-.542-2.427-.747-3.652-.696-4.15-2.323-7.628-6.713-8.955-1.4-.423-2.933-.831-4.352-.694-6.03.584-11.415 3.252-16.602 6.061-5.502 2.979-10.828 6.355-15.623 10.452-2.054 1.755-4.17 3.456-6.078 5.361-2.684 2.68-5.319 5.419-7.495 8.558-1.269 1.832-3.044 3.432-3.854 5.435-1.26 3.119-3.852 5.688-3.923 9.292-2.346 4.675-2.122 9.69-1.724 14.657.39 4.86 1.015 9.71 1.748 14.531.587 3.86 2.148 7.295 6.071 8.866 3.004 1.203 6.147 2.056 9.191 3.165 2.275.829 4.733.622 7.022 1.684 2.301 1.067 4.938 1.402 7.418 2.093.993.277 1.998 1.001 2.928.897 1.339-.15 2.381.222 3.469.803 2.017 1.079 4.044 2.134 6.119 3.225zm-248.533 52.678c.686-.118 1.066-.082 1.321-.243 9.607-6.076 19.202-12.171 28.902-18.329-.225-.949-.273-1.698-.575-2.327-.932-1.943-1.989-3.826-2.944-5.759-2.341-4.742-4.603-9.523-6.991-14.24-1.525-3.011-3.28-5.905-4.826-8.907-2.868-5.569-5.641-11.187-8.488-16.768-1.539-3.018-3.161-5.993-4.725-8.998-1.548-2.975-3.067-5.965-4.603-8.947a467.698 467.698 0 0 0-2.255-4.332c-2.133-4.035-4.284-8.061-6.405-12.102-.76-1.448-1.44-2.938-2.183-4.396-1.725-3.381-3.465-6.754-5.205-10.128-.034-.066-.161-.084-.196-.15-.807-1.49-1.573-3.004-2.423-4.469-.562-.968-1.245-1.867-1.981-2.955-1.169.763-2.138 1.241-2.918 1.933-2.199 1.95-4.723 3.451-6.972 5.361-4.464 3.792-9.327 7.11-13.908 10.771-2.991 2.389-5.712 5.113-8.68 7.533-1.382 1.127-1.78 2.424-1.728 4.066.127 3.95.153 7.904.33 11.852.18 4.017.541 8.026.723 12.043.086 1.894-.156 3.803-.082 5.698.197 5.077.482 10.151.734 15.226.194 3.921.339 7.846.598 11.763.297 4.497.787 8.983 1.03 13.482.347 6.433.55 12.874.803 19.311.094 2.389.098 4.783.243 7.168.206 3.372.545 6.735.753 10.107.276 4.468.427 8.944.731 13.41.275 4.038.683 8.068 1.033 12.102l27.439-22.23-2.517-35.53 13.089-8.623c.854 1.548 1.64 2.728 2.187 4.011 1.392 3.267 2.624 6.603 4.021 9.868 1.206 2.82 2.517 5.598 3.848 8.362.856 1.778 1.832 3.497 2.82 5.366zm-137.48 108.932c-1.493.575-2.672.94-3.768 1.475-1.147.561-2.199 1.314-3.32 1.933a2091.79 2091.79 0 0 1-12.642 6.93 637.855 637.855 0 0 1-8.326 4.44c-2.415 1.266-4.87 2.455-7.272 3.744-2.52 1.352-5.299 2.54-4.991 6.196.013.149-.132.305-.174.465-1.381 5.289-2.826 10.563-4.118 15.873-1.193 4.905-2.163 9.864-3.346 14.771-.849 3.523-1.936 6.989-2.826 10.503-1.47 5.803-2.797 11.642-4.318 17.431-1.091 4.151-2.396 8.247-3.615 12.365-1.153 3.895-2.318 7.786-3.475 11.679-.826 2.779-1.612 5.572-2.482 8.337-1.495 4.755-3.191 9.452-4.519 14.251-1.084 3.917-2.594 7.688-3.664 11.593-.505 1.842-1.62 3.653-.97 5.882 1.266-.31 2.497-.472 3.619-.913 2.918-1.146 5.744-2.537 8.688-3.609 5.924-2.157 11.904-4.16 17.856-6.241 2.4-.839 3.968-2.332 4.011-5.079.013-.82.205-1.656.43-2.452 1.715-6.092 3.481-12.17 5.179-18.267.503-1.807.807-3.668 1.259-5.49.52-2.092 1.094-4.01 3.562-4.874 3.274-1.146 6.398-2.717 9.618-4.029.808-.329 1.735-.366 2.844-.584.39 3.344.774 6.431 1.103 9.525.2 1.879.273 3.772.479 5.65.321 2.927.817 5.839 1.022 8.773.126 1.813.608 3.443 1.318 5.172 1.501-.646 2.829-1.277 4.202-1.786.922-.342 1.952-.405 2.858-.776a914.612 914.612 0 0 0 13.303-5.561c3.536-1.511 7.044-3.088 10.564-4.637 1.084-.477 1.798-1.185 1.62-2.494-.384-2.822-.691-5.655-1.143-8.466-.54-3.36-1.25-6.692-1.793-10.051-.762-4.713-1.375-9.451-2.174-14.157-.525-3.092-1.337-6.134-1.895-9.221-1.596-8.819-3.121-17.651-4.689-26.476-.377-2.124-.828-4.235-1.21-6.358-.458-2.539-.826-5.095-1.327-7.625-.967-4.889-2.002-9.764-3.006-14.646-.348-1.691-.708-3.38-1.023-5.078-.468-2.519-.903-5.049-1.449-8.118zM536.364 354.88c-6.206 3.461-11.77 7.169-17.177 11.134-1.985 1.456-4.074 2.78-6.18 4.057-1.077.653-1.827.261-2.04-.996-.256-1.514-.387-3.05-.538-4.58-.203-2.057-.375-4.118-.56-6.177-.252-2.793-.506-5.585-.754-8.379-.08-.903-.166-1.807-.21-2.712-.077-1.568-.089-3.14-.193-4.706-.126-1.885-.319-3.766-.47-5.499.604-.505.941-.925 1.379-1.131 3.749-1.758 6.484-4.974 10.165-6.9 2.801-1.465 5.159-3.757 7.788-5.576 2.377-1.645 4.825-3.194 7.299-4.69 1.082-.654 1.522-1.487 1.372-2.683-.154-1.226-.393-2.443-.496-3.672-.239-2.872-.019-5.773-.858-8.605-.505-1.702-.481-1.861-1.95-.94-3.621 2.27-7.234 4.558-10.756 6.976-4.837 3.322-9.576 6.786-14.378 10.16-3.793 2.665-7.648 5.241-11.419 7.937-5.735 4.1-11.399 8.3-17.144 12.386-1.319.938-1.889 1.921-1.581 3.576.332 1.786.384 3.625.541 5.442.294 3.394.574 6.789.863 10.184.446 5.249.936 10.495 1.326 15.748.285 3.846.383 7.706.668 11.552.322 4.339.762 8.669 1.146 13.004.208 2.351.372 4.707.619 7.054.203 1.927.581 3.837.732 5.766.154 1.968.094 3.952.188 5.926.11 2.317.283 4.63.434 6.945.138 2.108.22 4.222.438 6.321.372 3.582.868 7.151 1.238 10.734.216 2.091.15 4.216.451 6.291.722 4.982.485 10.024 1.065 15.003.227 1.942-.295 4.086 1.291 5.97.545-.139 1.244-.161 1.763-.478a129.422 129.422 0 0 0 6.046-3.917c1.628-1.123 3.317-2.214 4.737-3.572 3.247-3.105 7.269-5.08 10.837-7.711 2.402-1.771 5.023-3.261 7.321-5.151 2.268-1.865 5.248-2.781 6.997-5.333.248-.361.867-.455 1.292-.711 1.115-.672 2.254-1.313 3.317-2.061 1.568-1.103 3.05-2.329 4.623-3.425 1.191-.83 2.723-1.315 3.642-2.359 1.216-1.383 2.755-2.108 4.173-3.111.884-.625 2.076-1.285 2.104-2.927.082-4.785-.42-9.495-1.227-14.487-.885.703-1.549 1.387-2.347 1.83-1.647.914-3.386 1.662-5.05 2.547-1.327.706-2.322 1.819-3.428 2.811-2.379 2.134-5.586 3.265-7.683 5.85-2.665.472-4.323 2.683-6.604 3.833-2.169 1.093-3.195.563-3.672-1.778-.364-1.789-.02-3.559-.273-5.371-.434-3.106-.512-6.278-1.012-9.397-.049-.307 0-.628-.022-.94-.243-3.455-.528-6.907-.728-10.364-.282-4.877-1.104-9.706-1.009-14.629.031-1.628.535-2.826 1.636-3.398 1.825-.949 3.025-2.664 5.054-3.42 1.73-.645 3.053-2.307 4.696-3.282 1.671-.991 3.219-2.156 4.754-3.303 2.487-1.857 5.474-2.862 7.669-5.337 1.317-1.484 1.466-2.657 1.283-4.283-.267-2.357-.479-4.719-.726-7.078-.132-1.228-.286-2.455-.462-3.968zM459.366 129.1c-2.579 1.317-4.892 2.417-7.128 3.658-4.571 2.537-9.085 5.177-13.652 7.72a231.88 231.88 0 0 1-8.92 4.741c-1.912.958-1.959.873-1.133 2.863 2.687 6.473 5.38 12.943 8.065 19.417 2.492 6.01 4.932 12.043 7.474 18.032 2.848 6.712 5.823 13.371 8.673 20.083 3.24 7.633 6.407 15.297 9.598 22.951 3.518 8.438 7.016 16.884 10.548 25.316 1.112 2.656 2.305 5.277 3.502 8.008.798-.245 1.408-.305 1.872-.596a341.959 341.959 0 0 0 8.133-5.242c5.311-3.549 10.594-7.14 15.89-10.712.821-.554 1.637-1.116 2.478-1.638 3.076-1.91 5.869-4.217 9.008-6.069 2.62-1.546 4.761-3.898 7.151-5.845 1.396-1.137 2.774-2.345 4.324-3.236 3.22-1.851 5.71-4.495 8.442-7.091l-6.35-14.087c-4.417 3.474-8.428 6.936-12.754 9.945-4.358 3.032-8.393 6.59-13.307 9.14-1.966-4.496-3.821-8.673-5.62-12.873-2.18-5.09-4.302-10.205-6.469-15.301-2.405-5.656-4.91-11.27-7.225-16.962-1.688-4.151-3.904-8.065-5.161-12.423-.695-2.408-2.279-4.545-3.279-6.883-2.664-6.227-4.908-12.638-8.177-18.6-.119-.218-.17-.472-.267-.703l-5.716-13.613zM264.868 481.342c0 1.612-.036 2.919.006 4.224.334 10.398.731 20.793 1.014 31.192.247 9.045.393 18.094.542 27.141.116 7.039.206 14.079.233 21.118.016 4.133-.151 8.267-.168 12.401-.018 4.302.065 8.605.065 12.908 0 3.571-.065 7.142-.086 10.713-.015 2.538-.003 5.075-.003 8.035 1.278-.47 2.128-.723 2.927-1.086 2.997-1.362 5.892-3.01 8.99-4.066 2.561-.872 4.53-2.834 7.266-3.367 1.371-.267 2.57-1.377 3.87-2.062 1.343-.708 2.712-1.367 4.073-2.039 2.3-1.135 4.619-2.232 6.898-3.407 1.216-.627 2.334-1.444 3.552-2.065 1.441-.734 2.958-1.317 4.413-2.025 1.157-.563 2.261-1.236 3.407-1.825 1.642-.844 3.262-1.748 4.962-2.457 1.615-.674 2.673-2.12 4.329-2.765 1.555-.605 2.943-1.628 4.436-2.404 1.344-.699 1.84-1.853 1.858-3.255.016-1.233-.088-2.467-.115-3.701-.064-2.931-.092-5.862-.18-8.792-.031-1.048-.885-1.592-1.777-1.14-1.75.887-3.483 1.811-5.194 2.773-3.878 2.179-7.715 4.432-11.614 6.572-2.735 1.501-5.546 2.863-8.561 4.409-.577-1.024-1.023-2.069-1.03-3.369-.017-3.321-.138-6.641-.212-9.961-.06-2.714-.138-5.429-.16-8.143-.025-3.044.084-6.092-.014-9.133-.101-3.125-.437-6.242-.567-9.366-.105-2.523.003-5.055-.092-7.579-.111-2.955-.399-5.904-.505-8.859-.18-5.036-.221-10.078-.429-15.113-.13-3.146-.537-6.28-.678-9.426-.181-4.026-.145-8.063-.34-12.089-.225-4.638-.587-9.269-.915-13.901-.138-1.951-.34-3.898-.557-6.349l-29.644 18.258zM92.613 680.525l7.507-54.957 26.121-10.697 1.081-13.962c-8.82 3.189-16.97 6.949-25.859 10.089.386-3.79.738-7.053 1.046-10.319.547-5.796.993-11.602 1.644-17.386.189-1.678.6-3.38 2.646-4.16 3.568-1.361 7.043-2.966 10.559-4.462 3.817-1.623 7.573-3.42 11.476-4.804 3.598-1.275 4.885-3.609 4.824-7.283-.052-3.14.397-6.288.636-9.591-.772.104-1.218.068-1.578.228a1196.7 1196.7 0 0 0-12.017 5.395c-3.476 1.587-6.89 3.317-10.406 4.807-7 2.966-13.674 6.633-20.893 9.156-4.658 1.628-8.975 4.214-13.506 6.234-1.723.768-2.471 1.884-2.695 3.721-.813 6.671-1.776 13.323-2.634 19.988-.732 5.68-1.422 11.365-2.087 17.053-.525 4.499-.942 9.011-1.482 13.508-.634 5.278-1.517 10.531-1.98 15.823-.389 4.45-1.376 8.799-1.742 13.26-.471 5.732-1.698 11.397-2.433 17.112-.622 4.837-1.007 9.705-1.535 14.94 5.804-1.904 11.08-4.48 16.504-6.662 5.52-2.222 10.982-4.589 16.803-7.031zm145.631-187.586c.239.014.548.132.713.026 3.523-2.266 7.032-4.553 10.537-6.847.905-.593 1.916-1.098 2.653-1.862 3.061-3.173 5.956-6.511 9.077-9.622 1.566-1.561 1.477-3.178 1.055-5.04-.767-3.387-1.463-6.79-2.206-10.183a6028.84 6028.84 0 0 0-4.531-20.563c-.977-4.387-1.997-8.765-2.994-13.148-.473-2.08-.689-4.261-1.471-6.217-1.019-2.549-.461-4.463 1.355-6.313 1.959-1.995 3.82-4.087 5.727-6.133.62-.665 1.228-1.343 1.881-1.976 2.697-2.616 5.448-5.18 8.078-7.862.418-.427.538-1.397.425-2.051-.489-2.818-1.091-5.618-1.706-8.412-.255-1.162-.644-2.295-1.064-3.763-1.235.745-2.374 1.167-3.154 1.948-3.331 3.335-6.501 6.831-9.843 10.154-1.717 1.707-3.041 3.891-5.44 5.021-.333-.421-.72-.698-.802-1.047-.889-3.804-1.71-7.623-2.597-11.427-.292-1.25-.805-2.449-1.075-3.703-.821-3.816-1.365-7.705-2.417-11.452-.826-2.944.628-4.941 2.404-6.514 2.031-1.799 3.986-3.648 5.828-5.625 1.68-1.803 3.221-3.744 4.975-5.47 1.468-1.444 3.117-2.714 4.756-3.969 2.241-1.716 2.757-3.744 1.842-6.442-.897-2.645-1.404-5.422-2.162-8.459-.6-.48-1.568-1.355-2.743-.359-2.315 1.963-4.631 3.938-6.796 6.061-2.378 2.333-4.553 4.873-6.878 7.262-3.284 3.375-6.63 6.689-9.936 10.043-1.133 1.149-2.225 2.322-3.179 3.647-.649.902-1.78 1.441-2.537 2.285-1.461 1.627-2.585 3.641-4.267 4.962-1.735 1.362-2.579 3.362-4.461 4.688-3.683 2.597-4.024 5.38-2.679 9.773.356 1.162 1.292 2.306 1.191 3.306-.242 2.413.763 4.48 1.245 6.677.851 3.872 1.925 7.695 2.834 11.555.642 2.726 1.126 5.489 1.755 8.218.804 3.488 1.728 6.948 2.515 10.44.683 3.029 1.218 6.092 1.871 9.128.982 4.569 2.063 9.117 3.004 13.694 1.133 5.513 2.152 11.05 3.244 16.571.494 2.496 1.059 4.978 1.567 7.472.61 2.995 1.179 5.999 1.792 8.993.844 4.103 1.71 8.199 2.614 12.535zm-10.361 11.214c.437 41.147-.369 82.367-2.199 123.659.617-.04.864-.007 1.077-.078 2.482-.823 4.691-2.478 7.469-2.432.252.004.485-.433.771-.582 2.923-1.527 5.82-3.113 8.798-4.527 2.218-1.053 4.567-1.824 6.814-2.821 1.874-.832 3.735-1.719 5.503-2.751 1.339-.782 2.879-1.556 2.911-3.471.066-3.886.115-7.771.138-11.657.004-.629-.264-1.262-.238-1.887.143-3.436.459-6.869.493-10.306.087-8.967.04-17.935.086-26.903.019-3.768.24-7.536.19-11.302-.075-5.652-.344-11.301-.463-16.953-.122-5.808-.15-11.618-.244-17.427-.084-5.161-.178-10.322-.313-15.482-.1-3.808-.253-7.615-.443-11.419-.025-.5-.409-.982-.686-1.605-9.897 5.989-19.612 11.864-29.664 17.944z"/><path d="M433.096 281.129c-.772-1.868-1.617-3.71-2.302-5.609a753.234 753.234 0 0 1-4.681-13.375c-1.891-5.56-3.701-11.148-5.598-16.707-.692-2.026-1.541-3.998-2.305-5.999a2258.604 2258.604 0 0 1-3.562-9.382c-1.426-3.784-2.797-7.589-4.271-11.354a559.068 559.068 0 0 0-5.246-12.964c-1.282-3.047-2.978-5.946-3.998-9.071-1.391-4.262-3.749-8.071-5.262-12.258-.276-.765-.751-1.477-1.233-2.143-.524-.723-1.488-1.278-1.693-2.055a46.274 46.274 0 0 1-1.438-8.64c.568 1.057 1.215 2.08 1.69 3.178 2.268 5.247 4.282 10.614 6.775 15.75 3.718 7.661 6.58 15.667 9.934 23.472 2.266 5.272 4.42 10.593 6.544 15.923 2.559 6.421 4.936 12.916 7.574 19.304 2.121 5.134 4.504 10.16 6.789 15.225.753 1.669 1.546 3.32 2.354 4.963 1.881 3.825 1.197 7.721.487 11.622-.188.042-.373.081-.558.12zM567.68 171.009c-.051.277-.054.539-.147.763-1.239 2.972-3.389 5.122-6.208 6.574-1.02.525-2.606-.14-3.189-1.236-.585-1.098-.987-2.293-1.497-3.433a10156.94 10156.94 0 0 0-7.542-16.837c-1.363-3.035-2.758-6.056-4.108-9.097-2.159-4.866-4.269-9.755-6.446-14.613-1.254-2.797-2.657-5.527-3.887-8.334-1.091-2.49-1.994-5.062-3.059-7.564-1.039-2.441-2.193-4.833-3.272-7.257a441.25 441.25 0 0 1-3.287-7.537c-.6-1.419.299-4.037 1.589-5.022 1.114-.851 2.169-1.78 3.262-2.659 1.729-1.391 3.832-.942 4.698 1.101 1.634 3.855 3.076 7.795 4.788 11.614 2.483 5.539 5.188 10.979 7.697 16.507 1.848 4.072 3.508 8.229 5.299 12.327 1.428 3.267 2.918 6.507 4.396 9.752 2.537 5.568 5.106 11.121 7.621 16.699 1.015 2.251 1.934 4.546 2.875 6.829.191.461.285.96.417 1.423zM435.267 425.057c-.244-1.112-.502-1.882-.571-2.67-.42-4.8-.762-9.607-1.198-14.406-.433-4.772-.924-9.54-1.43-14.305-.339-3.197-.223-3.483 2.761-4.962 1.16-.575 2.252-1.324 3.697-1.066 2.151.385 2.688.805 3.039 2.957.68 4.164.955 8.362 1.137 12.577.12 2.771.702 5.521.82 8.292.094 2.209.201 4.531-.966 6.546-1.653 2.857-3.792 5.281-7.289 7.037zM398.544 350.613c-.977-3.054-1.804-5.564-2.583-8.089-1.389-4.504-2.722-9.025-4.127-13.524-1.746-5.592-3.558-11.163-5.308-16.754-.542-1.732-.998-3.492-1.439-5.252-.092-.369-.105-.991.113-1.166 1.279-1.031 2.515-2.276 3.998-2.854 1.945-.758 3.901.454 4.633 2.649.699 2.097 1.046 4.309 1.703 6.423.735 2.363 1.708 4.652 2.467 7.009 1.705 5.299 3.344 10.619 5.001 15.934.364 1.166.695 2.342 1.032 3.516 1.145 3.999-.42 7.113-3.211 9.828-.631.615-1.246 1.246-2.279 2.28zM380.392 291.686c-1.138-3.29-2.181-6.244-3.182-9.211-1.23-3.644-2.455-7.29-3.623-10.954-.553-1.735-.941-3.522-1.455-5.271-.538-1.831-1.074-3.666-1.732-5.455-.381-1.035-.471-2.075.231-2.833.936-1.012 2.015-2.009 3.23-2.618 1.581-.792 3.388-.011 4.245 1.78.757 1.582 1.226 3.307 1.77 4.986.811 2.506 1.555 5.035 2.367 7.541 1.044 3.224 2.344 6.384 3.142 9.666 1.08 4.439-.29 8.32-3.566 11.502-.279.271-.676.418-1.427.867zM308.561 341.4c1.493 3.623 2.98 7.248 4.482 10.867.979 2.36 2.068 4.678 2.941 7.075.757 2.08 1.461 4.167 2.401 6.181.701 1.5.324 2.429-1.056 3.315-1.859 1.193-3.752 2.332-6.088 3.777-.96-7.238-1.917-13.982-2.726-20.744-.413-3.449-.561-6.929-.829-10.395l.875-.076zM179.86 570.638c.238 2.33.543 4.655.7 6.99.394 5.833.696 11.673 1.475 17.474.066.492.07.994.092 1.492.122 2.736.033 2.87-2.388 3.877-1.23.511-2.437 1.078-3.678 1.56-.659.256-1.368.386-2.521.7 1.586-11.062 3.872-21.549 5.472-32.153l.848.06z"/></svg>